<?xml version="1.0" standalone="no"?>
<!DOCTYPE svg PUBLIC "-//W3C//DTD SVG 20010904//EN"
 "http://www.w3.org/TR/2001/REC-SVG-20010904/DTD/svg10.dtd">
<svg version="1.0" xmlns="http://www.w3.org/2000/svg"
 width="1024.000000pt" height="1024.000000pt" viewBox="0 0 1024.000000 1024.000000"
 preserveAspectRatio="xMidYMid meet">
<metadata>
Created by potrace 1.14, written by Peter Selinger 2001-2017
</metadata>
<g transform="translate(0.000000,1024.000000) scale(0.100000,-0.100000)"
fill="#000000" stroke="none">
<path d="M7770 10233 c-8 -3 -22 -12 -32 -20 -9 -8 -22 -16 -30 -17 -16 -3
-111 -49 -118 -57 -8 -10 -75 -43 -82 -41 -5 1 -8 -2 -8 -8 0 -5 -5 -10 -11
-10 -19 0 -413 -244 -447 -277 -7 -7 -17 -13 -21 -13 -4 0 -17 -9 -29 -20 -12
-12 -22 -17 -22 -13 0 4 -4 3 -8 -2 -4 -6 -52 -44 -107 -84 -55 -41 -105 -80
-112 -85 -7 -6 -18 -15 -25 -21 -12 -9 -139 -112 -191 -155 -10 -8 -31 -26
-46 -40 -15 -14 -65 -59 -112 -100 -46 -41 -170 -160 -274 -265 -162 -162
-234 -237 -403 -423 -12 -14 -33 -39 -45 -55 -12 -16 -28 -35 -35 -43 -7 -7
-38 -44 -68 -81 -30 -38 -61 -75 -67 -83 -7 -9 -33 -42 -57 -75 -25 -33 -47
-62 -51 -65 -3 -3 -20 -27 -39 -55 -19 -27 -36 -52 -40 -55 -3 -3 -17 -23 -30
-45 -13 -22 -27 -42 -30 -45 -8 -8 -160 -239 -160 -245 0 -2 -16 -29 -35 -60
-20 -30 -35 -57 -35 -60 0 -3 -16 -29 -35 -59 -19 -30 -35 -59 -35 -64 0 -5
-7 -15 -15 -22 -8 -6 -14 -15 -13 -18 2 -7 -7 -26 -89 -182 -22 -41 -61 -124
-87 -185 -27 -60 -55 -123 -62 -140 -32 -72 -74 -187 -74 -200 0 -8 -4 -15 -8
-15 -5 0 -9 -6 -9 -12 -1 -11 -60 -181 -80 -228 -3 -8 -7 -21 -9 -29 -4 -22
-26 -32 -59 -27 -16 3 -66 8 -110 11 -44 3 -93 8 -110 10 -67 8 -131 17 -155
21 -14 2 -43 7 -65 10 -22 4 -69 13 -105 20 -36 8 -74 17 -85 19 -53 12 -442
107 -455 112 -15 6 -38 11 -72 16 -10 2 -20 6 -24 9 -3 4 -12 4 -20 1 -8 -3
-14 -1 -14 4 0 5 -10 9 -22 11 -13 1 -59 11 -103 22 -44 12 -87 23 -95 25 -8
2 -44 11 -80 20 -36 9 -84 21 -108 26 -24 5 -47 11 -51 13 -4 3 -18 7 -32 10
-32 7 -160 41 -229 61 -132 38 -137 39 -164 22 -22 -15 -43 -56 -42 -83 1 -6
29 -55 63 -108 35 -54 63 -102 63 -107 0 -5 5 -9 10 -9 6 0 10 -7 10 -15 0 -8
5 -15 10 -15 6 0 10 -5 10 -10 0 -6 30 -57 67 -113 72 -110 97 -149 115 -184
6 -13 15 -23 20 -23 4 0 8 -4 8 -10 0 -8 99 -164 155 -245 8 -11 75 -112 149
-225 74 -113 140 -211 146 -217 6 -7 8 -13 5 -13 -4 0 0 -7 7 -15 27 -30 38
-44 38 -50 0 -17 523 -792 545 -807 6 -5 6 -8 0 -8 -6 0 -6 -3 1 -8 14 -10
134 -189 134 -201 0 -5 -22 -75 -49 -155 -27 -80 -46 -147 -43 -150 3 -4 0 -6
-6 -6 -6 0 -9 -7 -6 -15 4 -8 1 -15 -6 -15 -7 0 -10 -6 -7 -14 3 -7 2 -17 -3
-22 -8 -10 -45 -119 -40 -119 2 0 -3 -11 -11 -25 -8 -14 -14 -29 -15 -35 0 -5
-4 -17 -7 -25 -4 -8 -36 -94 -72 -190 -36 -96 -72 -189 -80 -207 -8 -17 -15
-36 -15 -42 0 -6 -4 -19 -9 -29 -16 -29 -48 -105 -62 -147 -8 -22 -16 -42 -19
-45 -3 -3 -16 -32 -29 -65 -28 -69 -71 -167 -106 -240 -39 -82 -85 -185 -85
-190 0 -3 -4 -11 -10 -18 -6 -6 -40 -73 -76 -147 -36 -74 -71 -138 -77 -142
-7 -4 -9 -8 -4 -8 8 0 -38 -87 -125 -233 -32 -55 -58 -103 -58 -108 0 -5 -4
-9 -8 -9 -5 0 -14 -12 -20 -26 -25 -54 -234 -353 -287 -410 -5 -7 -35 -40 -65
-74 -54 -61 -164 -171 -207 -207 -12 -10 -32 -27 -44 -37 -41 -34 -203 -136
-216 -136 -7 0 -13 -4 -13 -10 0 -5 -7 -10 -15 -10 -9 0 -27 -7 -41 -16 -13
-9 -26 -15 -28 -13 -3 2 11 29 30 59 18 30 38 64 44 75 6 11 16 29 23 40 39
64 111 201 109 208 -1 4 2 7 8 7 5 0 10 4 10 9 0 5 14 40 31 78 52 116 63 144
61 156 -1 4 3 7 9 7 5 0 8 4 4 9 -3 5 1 15 8 23 8 7 14 20 14 28 1 8 17 61 37
118 120 345 150 682 85 962 -21 89 -59 212 -70 220 -3 3 -17 30 -32 60 -43 92
-153 226 -235 287 -20 16 -39 30 -42 33 -16 16 -150 83 -167 83 -7 0 -13 4
-13 9 0 4 -11 8 -24 8 -14 0 -28 5 -31 11 -4 5 -12 8 -18 6 -7 -2 -23 0 -36 5
-58 21 -261 30 -351 14 -25 -4 -60 -9 -78 -11 -18 -2 -37 -7 -42 -10 -6 -3
-19 -8 -30 -11 -11 -2 -28 -6 -39 -8 -38 -9 -178 -68 -236 -101 -369 -205
-661 -609 -722 -995 -2 -14 -6 -38 -9 -55 -12 -65 -11 -343 1 -420 30 -190 76
-352 141 -490 15 -33 28 -63 29 -66 1 -16 113 -202 162 -268 75 -103 251 -275
343 -336 41 -28 77 -53 80 -56 13 -15 205 -100 281 -125 l86 -27 -24 -44 c-23
-45 -29 -79 -15 -100 5 -8 20 -3 50 18 45 31 123 68 153 74 11 2 24 7 29 10
10 6 78 13 195 19 110 6 258 46 389 105 34 15 76 34 94 42 17 7 32 17 32 21 0
5 5 8 11 8 14 0 170 101 229 149 136 109 325 300 422 427 12 16 25 31 28 34
18 14 133 178 202 285 28 44 61 96 73 115 13 19 37 62 55 95 18 33 36 65 40
70 7 10 61 110 127 235 19 36 39 71 45 78 6 6 7 12 3 12 -4 0 -2 6 4 14 11 13
114 214 116 226 0 3 10 25 22 50 35 73 93 201 93 205 0 3 12 30 27 62 14 32
26 64 26 71 0 6 4 12 8 12 4 0 10 11 13 24 3 13 16 46 28 73 11 26 22 53 23
59 3 14 124 341 136 369 5 11 36 103 70 205 33 102 63 192 66 200 3 8 8 22 9
30 2 8 12 42 23 74 18 59 18 59 34 35 26 -40 161 -326 207 -439 37 -90 147
-395 154 -425 6 -26 29 -103 39 -130 7 -16 12 -34 13 -40 1 -5 12 -45 24 -87
11 -43 23 -85 25 -95 1 -10 11 -47 20 -83 9 -36 19 -73 21 -83 2 -10 5 -26 8
-35 3 -9 7 -29 10 -45 3 -15 7 -35 10 -45 3 -9 8 -29 11 -44 3 -16 7 -40 10
-55 9 -42 15 -75 21 -113 3 -19 8 -38 11 -43 2 -4 6 -24 8 -45 3 -20 7 -48 10
-62 3 -14 10 -52 15 -85 5 -33 12 -71 15 -85 3 -14 7 -47 10 -75 3 -27 8 -57
10 -65 2 -8 7 -40 10 -70 3 -30 8 -66 10 -80 2 -14 7 -47 10 -75 3 -27 7 -65
10 -83 2 -19 7 -66 10 -105 3 -40 7 -83 9 -97 4 -24 14 -166 21 -320 2 -41 4
-126 5 -189 2 -153 22 -203 100 -240 65 -32 159 -8 201 50 20 28 47 107 54
157 2 15 13 70 25 122 12 52 24 104 26 115 2 11 6 30 8 41 2 12 14 66 26 120
12 55 24 108 26 119 14 77 49 231 54 235 3 3 6 14 7 25 2 29 13 87 19 105 5
14 61 269 70 320 3 14 7 33 10 42 3 10 8 30 11 45 8 43 11 58 13 58 1 0 3 9 5
20 5 40 16 88 20 95 3 4 7 22 9 41 3 19 7 44 11 57 3 12 7 32 11 45 3 12 7 33
10 47 2 14 7 32 10 40 3 8 8 31 10 50 3 19 10 53 15 75 6 22 13 49 14 60 5 26
12 62 31 144 9 36 18 75 20 86 2 11 6 31 9 45 3 14 10 45 15 70 5 25 16 77 26
115 9 39 18 79 20 90 1 11 10 52 19 90 9 39 18 81 21 95 3 14 12 59 21 100 8
41 17 84 20 95 2 11 6 34 9 50 3 17 8 37 11 45 7 18 10 32 16 87 3 24 9 48 13
54 3 6 8 23 10 38 1 14 5 37 9 51 3 14 8 34 10 45 8 46 16 84 31 150 9 39 18
80 20 93 7 37 13 66 19 92 3 14 8 34 10 45 3 19 14 69 19 90 2 6 6 28 11 50 4
22 18 85 32 140 13 55 26 109 27 120 4 23 30 132 51 215 8 30 17 66 19 80 2
14 5 25 6 25 1 0 3 11 6 25 2 14 18 75 34 135 16 61 31 121 34 135 3 14 10 41
16 60 6 19 13 46 16 60 2 14 7 32 11 40 3 8 7 17 8 20 23 89 30 110 37 110 5
0 6 5 3 10 -4 6 3 43 14 83 23 78 26 87 71 252 17 61 39 139 50 175 10 36 24
85 31 110 7 25 20 49 28 55 19 11 15 10 151 30 19 2 46 7 60 10 40 8 152 26
185 29 17 2 44 6 60 9 17 3 50 9 75 12 25 3 56 7 70 10 32 7 86 15 130 20 89
10 127 15 145 19 11 2 47 7 80 11 32 4 68 9 78 11 10 2 46 6 80 9 34 3 73 8
87 10 41 6 133 17 170 20 19 2 69 6 110 10 193 18 239 21 338 19 115 -3 128
-5 212 -29 30 -8 62 -17 71 -19 34 -9 173 -106 152 -106 -4 0 0 -5 10 -11 26
-15 74 -113 93 -189 10 -40 13 -243 4 -291 -5 -24 -11 -60 -14 -79 -12 -78
-60 -219 -98 -290 -85 -159 -194 -278 -378 -413 -36 -26 -69 -51 -75 -55 -34
-27 -105 -72 -113 -72 -6 0 -12 -4 -14 -9 -7 -19 -451 -246 -523 -267 -8 -2
-65 -25 -190 -74 -46 -18 -91 -35 -100 -37 -5 -1 -30 -9 -55 -18 -56 -21 -228
-75 -255 -81 -11 -2 -31 -8 -45 -14 -21 -8 -140 -42 -190 -55 -8 -2 -60 -15
-115 -30 -226 -60 -331 -85 -357 -85 -65 0 -206 -77 -182 -99 5 -5 43 -26 84
-47 41 -21 77 -42 78 -46 2 -5 9 -8 16 -8 15 0 120 -107 170 -174 79 -104 170
-355 220 -606 3 -14 8 -36 11 -50 3 -14 8 -43 10 -64 3 -21 8 -42 10 -47 3 -4
8 -32 11 -61 5 -52 11 -93 14 -93 2 0 8 -33 15 -85 3 -25 8 -54 10 -65 6 -30
16 -95 21 -135 5 -49 12 -95 14 -95 1 0 4 -13 5 -30 3 -30 10 -78 19 -125 3
-14 7 -47 11 -75 3 -27 10 -75 15 -105 5 -30 12 -73 15 -95 4 -22 8 -47 10
-55 2 -8 7 -37 11 -65 3 -27 8 -53 10 -56 2 -4 6 -24 10 -45 3 -22 9 -55 14
-74 5 -19 12 -48 15 -65 3 -16 14 -66 25 -110 12 -44 23 -89 25 -101 3 -11 19
-63 36 -115 17 -52 32 -100 32 -106 0 -7 4 -13 9 -13 4 0 7 -3 7 -8 -5 -22 87
-207 148 -300 40 -60 64 -92 100 -129 12 -13 20 -23 18 -23 -3 0 20 -25 51
-55 31 -30 60 -55 65 -55 5 0 4 -11 -1 -24 -5 -13 -6 -26 -4 -29 3 -3 1 -13
-4 -24 -16 -30 -43 -98 -45 -113 -2 -8 -5 -19 -8 -25 -6 -9 -12 -32 -25 -88
-2 -9 -7 -27 -10 -40 -3 -12 -6 -32 -7 -44 -1 -13 -3 -23 -6 -23 -4 0 -7 -15
-8 -33 -1 -17 -4 -61 -8 -97 -6 -60 -8 -156 -6 -238 1 -30 2 -31 22 -20 11 7
36 42 55 78 37 71 64 119 109 195 17 27 35 57 40 67 114 199 180 299 194 295
190 -59 270 -76 391 -84 164 -11 317 0 470 32 14 3 43 8 65 11 48 7 220 63
290 95 28 13 53 22 58 21 4 -1 7 2 7 7 0 5 10 13 21 16 27 9 163 96 167 107 2
4 9 8 16 8 6 0 18 9 26 20 8 11 18 20 22 20 4 0 16 8 26 18 10 10 27 25 38 33
24 18 129 132 169 182 17 21 35 44 41 50 58 65 237 377 237 415 0 6 3 12 7 12
7 0 39 74 40 92 1 4 11 31 24 60 30 69 88 253 101 324 2 10 4 19 5 19 2 0 8
26 25 123 3 15 7 38 10 52 13 65 19 169 19 325 1 219 -12 341 -46 460 -61 212
-144 317 -331 419 -27 15 -53 24 -58 21 -5 -4 -9 -2 -9 2 0 5 -12 10 -27 11
-73 8 -103 8 -103 3 0 -3 -15 -5 -32 -5 -18 1 -39 -3 -45 -9 -7 -5 -13 -6 -13
-2 0 4 -7 2 -15 -5 -8 -7 -15 -9 -15 -5 0 4 -7 2 -15 -5 -8 -7 -15 -10 -15 -6
0 11 -152 -75 -200 -112 -74 -58 -171 -164 -315 -342 -42 -52 -89 -111 -105
-130 -126 -156 -450 -588 -450 -600 0 -5 -4 -10 -8 -12 -4 -1 -23 -25 -42 -53
-19 -27 -39 -54 -43 -60 -4 -5 -30 -41 -57 -80 -27 -38 -53 -75 -57 -80 -25
-32 -254 -385 -264 -407 -7 -16 -15 -28 -19 -28 -4 0 -10 -8 -13 -17 -4 -10
-17 -36 -29 -58 -13 -22 -30 -51 -37 -63 l-13 -24 -27 39 c-16 21 -39 58 -53
83 -28 52 -108 253 -115 289 -2 13 -8 32 -14 43 -5 10 -7 18 -3 18 3 0 2 6 -3
13 -6 6 -16 35 -22 62 -17 67 -19 74 -31 120 -6 22 -13 54 -16 70 -3 17 -10
37 -14 45 -4 8 -11 35 -15 60 -4 25 -10 49 -13 54 -3 6 -7 19 -8 30 -2 26 -13
76 -20 95 -2 8 -7 30 -10 50 -3 20 -7 42 -10 50 -5 15 -59 258 -67 301 -11 57
-61 263 -91 368 -8 28 -12 52 -10 52 3 0 -2 13 -11 30 -8 16 -15 31 -14 32 2
6 -42 153 -52 170 -5 10 -9 25 -9 33 0 8 -4 15 -8 15 -4 0 -8 8 -9 18 -1 9 -7
31 -14 47 -7 17 -13 32 -14 35 -26 76 -156 323 -185 350 -15 14 -61 82 -58 85
2 2 28 7 58 10 75 9 90 11 130 19 19 4 46 9 60 11 14 2 39 6 55 10 17 3 53 10
81 16 28 5 64 12 80 15 44 9 59 12 59 14 0 1 12 3 26 4 14 2 31 6 37 10 7 4
25 10 40 12 15 3 45 10 67 16 22 7 42 12 45 12 3 1 11 5 18 9 6 5 12 6 12 3 0
-8 304 98 398 138 44 19 83 32 86 29 3 -4 6 -1 6 5 0 7 9 12 20 12 11 0 20 4
20 8 0 4 10 8 21 9 12 1 29 9 38 17 10 9 21 16 24 16 38 0 449 241 477 280 3
4 12 11 21 16 61 34 273 239 346 334 130 170 232 387 259 549 3 18 8 43 10 55
9 39 16 130 18 203 0 40 5 73 9 73 5 0 5 4 2 10 -3 5 -8 40 -11 77 -5 67 -11
118 -14 118 -1 0 -4 11 -6 25 -11 63 -82 221 -123 274 -34 44 -138 143 -181
172 -63 41 -180 95 -240 109 -191 45 -291 55 -525 55 -166 -1 -291 -6 -363
-15 -26 -4 -65 -8 -87 -10 -56 -5 -157 -17 -175 -20 -8 -2 -44 -6 -80 -10 -36
-4 -67 -8 -70 -10 -3 -2 -32 -6 -65 -9 -33 -4 -67 -9 -75 -11 -8 -2 -40 -7
-71 -9 -31 -3 -67 -7 -80 -10 -29 -7 -67 -13 -128 -22 -25 -3 -57 -8 -71 -10
-14 -3 -42 -7 -62 -9 -20 -2 -45 -6 -55 -9 -10 -3 -38 -8 -63 -11 -25 -2 -62
-7 -82 -10 -28 -4 -38 -2 -38 9 0 12 21 79 37 116 3 8 7 20 8 25 2 6 17 48 35
95 17 47 33 92 35 100 2 8 15 47 30 85 34 92 35 95 32 99 -1 1 4 10 12 19 7
10 11 17 8 17 -3 0 0 12 8 27 8 15 12 30 9 35 -3 4 0 8 7 8 7 0 9 3 6 6 -3 4
-2 15 4 26 6 11 12 27 14 36 2 9 20 60 40 112 20 52 42 111 49 130 7 19 46
123 86 230 40 107 73 200 75 205 1 6 8 24 15 40 7 17 14 33 15 38 2 4 4 9 5
12 1 3 3 8 5 13 1 4 4 14 8 22 3 8 15 42 26 75 12 33 26 69 31 80 5 11 34 90
65 175 64 177 93 256 105 285 5 11 21 54 35 95 14 41 28 82 32 90 3 8 7 22 9
30 2 8 7 23 12 35 32 66 294 834 363 1060 6 22 14 44 17 49 34 59 -41 134
-108 109z m-272 -475 c-46 -90 -87 -166 -91 -169 -5 -3 -8 -9 -8 -13 2 -13
-53 -126 -61 -126 -4 0 -8 -6 -8 -14 0 -8 -15 -45 -34 -82 -18 -38 -53 -109
-76 -159 -23 -49 -50 -107 -61 -128 -10 -21 -19 -44 -19 -52 0 -8 -4 -15 -10
-15 -5 0 -9 -3 -8 -7 1 -5 -5 -24 -14 -43 -9 -19 -50 -114 -92 -210 -43 -96
-83 -188 -91 -205 -28 -63 -48 -110 -51 -120 -2 -11 -52 -131 -77 -186 -16
-37 -29 -72 -27 -77 0 -1 -6 -15 -14 -30 -8 -15 -31 -67 -51 -117 -20 -49 -40
-99 -45 -110 -5 -11 -19 -49 -31 -85 -12 -36 -26 -69 -29 -75 -8 -11 -29 -74
-31 -90 -1 -5 -6 -19 -12 -30 -6 -11 -12 -22 -12 -25 -1 -3 -7 -18 -14 -35 -7
-16 -14 -34 -15 -40 -3 -10 -5 -16 -22 -60 -4 -11 -8 -24 -9 -30 -3 -9 -29
-78 -50 -130 -4 -11 -9 -24 -11 -30 -1 -5 -23 -68 -49 -140 -53 -147 -116
-325 -119 -340 -2 -5 -8 -23 -14 -38 -7 -16 -12 -34 -12 -41 0 -7 -3 -16 -7
-20 -5 -4 -8 -11 -8 -14 -2 -26 -39 -112 -48 -112 -7 0 -68 -9 -137 -19 -69
-11 -147 -23 -175 -26 -27 -3 -57 -8 -65 -10 -8 -2 -42 -7 -75 -11 -33 -3 -68
-8 -79 -10 -10 -2 -44 -6 -75 -9 -31 -3 -67 -8 -81 -10 -27 -5 -89 -12 -185
-21 -33 -3 -76 -7 -95 -10 -19 -2 -111 -6 -203 -8 l-168 -4 7 31 c3 18 24 82
46 142 22 61 40 116 41 123 0 6 4 12 9 12 4 0 7 3 7 8 -1 4 0 10 1 15 1 4 3
10 4 15 1 4 10 24 19 46 9 21 17 44 17 50 0 7 4 16 8 22 5 5 19 34 31 64 13
30 32 78 44 105 28 66 230 469 238 475 3 3 17 25 30 50 43 79 113 195 121 198
5 2 8 8 8 13 0 13 180 283 192 287 4 2 8 9 8 15 0 7 9 23 20 37 12 14 48 61
81 105 33 44 69 90 80 103 10 12 17 22 15 22 -2 0 7 12 20 28 13 15 50 59 82
97 31 39 66 81 77 93 11 13 27 32 35 41 87 103 155 176 335 356 209 210 268
266 400 380 39 33 72 63 73 68 2 4 10 7 18 7 8 0 14 3 14 8 0 4 24 26 53 49
28 23 61 48 72 57 11 9 56 43 100 76 44 33 85 63 90 68 24 19 235 162 240 162
3 0 11 5 18 10 23 20 82 58 90 59 4 1 -30 -72 -75 -161z m-4628 -3340 c0 -4
11 -8 24 -8 14 0 27 -4 30 -8 3 -5 31 -14 63 -21 32 -8 63 -16 68 -19 10 -7
28 -11 58 -14 9 -1 17 -5 17 -9 0 -4 15 -9 33 -12 66 -11 102 -19 107 -25 3
-4 12 -8 20 -8 8 -1 87 -18 175 -39 88 -20 169 -39 180 -41 11 -2 31 -6 45 -9
14 -3 34 -7 45 -10 65 -14 326 -64 360 -69 22 -4 54 -9 70 -11 57 -10 90 -15
148 -21 32 -4 59 -10 62 -14 2 -3 -9 -43 -25 -87 -15 -45 -26 -84 -22 -87 3
-3 0 -6 -7 -6 -7 0 -10 -4 -7 -8 3 -5 -1 -19 -8 -33 -7 -13 -11 -30 -8 -37 2
-6 -2 -12 -9 -12 -7 0 -10 -3 -6 -6 3 -4 0 -21 -7 -38 -7 -17 -13 -33 -14 -36
-1 -7 -4 -17 -56 -175 -52 -160 -88 -275 -90 -290 0 -5 -4 -12 -8 -15 -4 -3
-9 -17 -12 -32 -2 -14 -9 -36 -16 -47 -6 -12 -8 -21 -5 -21 2 0 -2 -17 -10
-37 -11 -31 -26 -80 -41 -135 -1 -5 -2 -15 -3 -23 -2 -28 -18 -16 -77 57 -33
40 -70 85 -84 101 -14 16 -37 46 -51 67 -15 22 -29 36 -33 33 -3 -4 -6 -1 -6
6 0 7 -6 18 -12 25 -7 7 -24 27 -38 45 -14 18 -30 38 -35 44 -46 54 -145 177
-145 182 0 5 -11 18 -67 80 -13 13 -23 27 -23 30 0 4 -6 12 -12 19 -7 7 -24
28 -38 46 -41 55 -75 95 -82 98 -5 2 -8 9 -8 15 0 7 -14 26 -30 44 -17 18 -30
37 -30 42 0 6 -4 11 -8 11 -4 0 -25 24 -47 53 -21 28 -43 57 -47 62 -5 6 -34
44 -65 85 -32 41 -60 77 -63 80 -3 3 -39 49 -80 103 -41 55 -83 109 -93 122
-17 23 -17 24 3 22 11 -1 20 -5 20 -9z m3110 -404 c-63 -215 -67 -232 -76
-274 -3 -13 -11 -28 -17 -32 -7 -4 -9 -8 -5 -8 4 0 -5 -39 -18 -87 -14 -49
-29 -101 -34 -118 -4 -16 -42 -145 -83 -285 -87 -296 -99 -340 -101 -360 -1
-9 -5 -20 -8 -25 -7 -11 -38 -119 -43 -150 -2 -11 -4 -20 -5 -20 -1 0 -4 -9
-6 -20 -8 -34 -12 -50 -14 -50 -1 0 -3 -7 -5 -15 -2 -8 -6 -25 -9 -37 -3 -13
-9 -33 -12 -45 -3 -13 -7 -30 -9 -38 -2 -8 -4 -15 -5 -15 -1 0 -3 -7 -5 -15
-1 -8 -15 -60 -29 -115 -15 -55 -29 -111 -32 -125 -2 -14 -11 -48 -19 -76 -8
-28 -17 -62 -19 -75 -3 -13 -5 -24 -6 -24 -1 0 -3 -9 -5 -20 -2 -11 -11 -49
-20 -85 -9 -36 -18 -72 -20 -80 -2 -8 -11 -46 -20 -85 -9 -38 -19 -83 -21
-100 -3 -16 -8 -37 -11 -45 -3 -8 -7 -23 -8 -32 -2 -10 -4 -20 -5 -23 -3 -6
-4 -9 -13 -55 -7 -35 -13 -60 -22 -102 -3 -13 -7 -36 -10 -53 -5 -28 -8 -42
-20 -105 -3 -14 -8 -45 -11 -70 -3 -25 -8 -56 -10 -70 -3 -14 -6 -41 -9 -60
-2 -19 -7 -51 -10 -70 -3 -19 -7 -55 -10 -80 -3 -25 -8 -56 -10 -69 -2 -14 -7
-51 -10 -84 -4 -32 -8 -66 -10 -75 -1 -9 -13 -79 -26 -155 -21 -132 -31 -152
-44 -87 -2 11 -6 23 -8 28 -3 4 -8 29 -11 56 -4 27 -9 53 -11 56 -3 4 -7 25
-10 46 -4 22 -8 48 -11 59 -2 11 -6 31 -8 45 -3 14 -8 39 -12 55 -3 17 -8 39
-9 50 -2 11 -4 20 -5 20 -1 0 -3 7 -5 15 -2 8 -7 26 -10 40 -3 14 -8 34 -10
45 -2 11 -6 30 -9 43 -3 12 -8 30 -10 40 -2 9 -10 37 -17 62 -6 25 -13 52 -14
60 -6 39 -126 423 -154 495 -51 127 -71 182 -71 193 0 6 -4 12 -8 12 -5 0 -9
6 -9 14 0 8 -7 29 -15 47 -9 19 -24 52 -33 74 -61 137 -210 430 -235 460 -7 8
-9 15 -6 15 4 0 -2 10 -14 22 -11 12 -20 28 -20 35 0 7 -4 13 -9 13 -5 0 -14
14 -21 30 -7 17 -15 30 -19 30 -3 0 -12 13 -19 30 -14 30 -12 59 8 120 6 19
13 44 15 55 3 11 16 61 30 110 14 50 28 101 31 115 3 14 12 50 21 80 9 30 18
61 19 68 1 7 9 36 18 65 9 28 36 129 62 222 25 94 75 274 111 400 35 127 66
238 69 249 2 10 5 20 7 22 2 2 100 6 218 9 118 2 225 7 239 10 14 3 59 7 100
10 75 6 107 9 190 19 25 3 70 8 100 11 30 3 66 7 80 10 14 2 43 6 65 9 22 3
60 8 85 11 25 3 52 8 60 10 8 2 40 7 70 10 30 4 73 10 95 14 22 4 41 7 43 5 2
-1 -24 -96 -58 -210z m-4411 -2882 c8 3 78 -21 104 -36 46 -24 83 -52 106 -80
14 -15 31 -34 38 -41 20 -21 69 -115 88 -170 16 -48 20 -62 30 -115 3 -14 7
-36 10 -50 5 -21 16 -153 16 -185 1 -80 -15 -246 -31 -335 -5 -24 -6 -48 -4
-52 3 -5 1 -8 -4 -8 -5 0 -9 -6 -9 -12 -1 -46 -74 -312 -96 -353 -6 -11 -12
-27 -12 -35 -3 -22 -78 -205 -129 -314 -24 -52 -41 -97 -38 -100 3 -3 0 -6 -6
-6 -7 0 -12 -5 -12 -10 0 -9 -96 -215 -107 -230 -6 -7 -107 -6 -118 1 -5 4
-30 12 -55 19 -57 14 -198 84 -235 116 -15 13 -31 24 -34 24 -8 0 -127 116
-168 164 -49 57 -117 163 -162 253 -50 100 -104 250 -116 323 -3 19 -8 43 -11
53 -15 49 -24 326 -11 334 4 2 5 8 2 13 -10 17 27 159 65 245 10 22 21 50 24
63 4 12 11 22 16 22 4 0 11 11 14 24 3 14 12 31 19 38 6 7 24 31 39 53 29 42
168 193 168 181 0 -3 8 1 18 10 54 49 87 70 177 114 110 54 210 84 295 89 30
1 56 4 58 6 2 2 17 -1 34 -6 17 -4 33 -7 37 -7z m7926 -162 c8 -9 17 -27 20
-39 2 -11 6 -24 8 -29 9 -14 19 -148 18 -237 -1 -141 -11 -227 -37 -345 -9
-41 -17 -82 -19 -90 -13 -91 -159 -462 -189 -482 -6 -4 -7 -8 -3 -8 5 0 1 -7
-7 -16 -9 -8 -14 -19 -11 -24 3 -5 2 -10 -2 -12 -5 -1 -26 -30 -48 -63 -104
-159 -247 -302 -390 -393 -24 -15 -106 -53 -120 -56 -5 -1 -15 -4 -20 -8 -20
-13 -158 -44 -235 -53 -14 -2 -25 -4 -25 -5 0 -2 -87 -10 -120 -11 -42 -1
-130 10 -195 25 -39 9 -134 28 -148 30 -21 3 -19 8 26 81 24 39 48 79 55 90 7
10 18 25 25 33 6 7 12 17 12 22 0 5 6 15 13 22 7 7 35 47 62 88 27 41 81 119
120 173 38 54 75 106 80 115 6 9 15 21 20 28 6 6 17 21 25 34 8 12 61 83 118
158 57 75 111 148 120 161 9 13 22 28 27 35 6 6 50 63 99 126 97 124 213 266
255 310 14 15 49 51 77 81 62 65 207 202 257 244 57 46 99 51 132 15z"/>
</g>
</svg>
