<svg width="16" height="10" viewBox="0 0 16 10" fill="#212121" xmlns="http://www.w3.org/2000/svg">
<path fill-rule="evenodd" clip-rule="evenodd" d="M8.2422 6.96483C8.2422 5.7328 7.65618 4.82211 6.44549 4.48077C7.32884 4.0601 7.78952 3.42275 7.78952 2.43139C7.78952 0.476678 6.32815 0 4.64211 0H0V9.81423H4.77211C6.56149 9.81423 8.2422 8.95888 8.2422 6.96483ZM2.16405 1.67537H4.19477C4.97545 1.67537 5.67814 1.89405 5.67814 2.79673C5.67814 3.63009 5.13146 3.96543 4.3581 3.96543H2.16405V1.67537ZM2.16338 8.14753V5.4448H4.52211C5.4748 5.4448 6.07748 5.84081 6.07748 6.84616C6.07748 7.83752 5.35813 8.14753 4.47744 8.14753H2.16338ZM12.5308 10.0002C14.2335 10.0002 15.3362 9.23554 15.8669 7.61017H14.1389C13.9528 8.21685 13.1862 8.53752 12.5915 8.53752C11.4441 8.53752 10.8414 7.86751 10.8414 6.72881H15.9836C15.9922 6.61348 16.0002 6.48881 16.0002 6.36414C16.0002 4.26208 14.7669 2.50937 12.5308 2.50937C10.3581 2.50937 8.88339 4.13741 8.88339 6.27013C8.88272 8.48219 10.2801 10.0002 12.5308 10.0002ZM12.4695 3.98274C13.4528 3.98274 13.9475 4.55876 14.0302 5.50078H10.8441C10.9088 4.56676 11.5308 3.98274 12.4695 3.98274ZM14.4368 0.515547H10.4447V1.48224H14.4368V0.515547Z"/>
</svg>
