<svg width="21" height="21" viewBox="0 0 21 21" fill="#fff" xmlns="http://www.w3.org/2000/svg">
<path fill-rule="evenodd" clip-rule="evenodd" d="M14.5569 8.34609C14.5569 4.69018 11.5854 1.7354 7.94619 1.7354C4.29028 1.7354 1.33549 4.70687 1.33549 8.34609C1.33549 11.9853 4.30697 14.9401 7.94619 14.9401C11.5854 14.9401 14.5569 12.002 14.5569 8.34609ZM0 8.34609C0 3.95566 3.55575 0.399902 7.94619 0.399902C12.3199 0.399902 15.8924 3.95566 15.8924 8.34609C15.8924 10.0445 15.3603 11.6181 14.4535 12.9091L20.6047 19.0603L19.6604 20.0047L13.5934 13.9377C12.1536 15.3918 10.1556 16.2923 7.94619 16.2923C3.55575 16.2923 0 12.7365 0 8.34609Z" />
</svg>
