<svg width="30" height="29" viewBox="0 0 30 29" fill="none" xmlns="http://www.w3.org/2000/svg">
<g clip-path="url(#clip0_1_926)">
<path d="M18.8336 17.2131L17.7984 18.2896C17.5702 18.5269 17.5776 18.9042 17.8149 19.1324L27.2256 28.1822C27.4629 28.4104 27.8402 28.403 28.0684 28.1657L29.1036 27.0893C29.3317 26.852 29.3244 26.4746 29.0871 26.2465L19.6764 17.1966C19.4391 16.9685 19.0618 16.9759 18.8336 17.2131Z" fill="#D8D8D8"/>
<path d="M16.5719 2.73587C15.1931 1.40916 13.4558 0.515518 11.5747 0.165358C9.69364 -0.184803 7.75117 0.0238668 5.98737 0.765603C4.22357 1.50734 2.71575 2.74963 1.65025 4.33893C0.584755 5.92823 0.00826574 7.7949 -0.00794907 9.70825C-0.0241639 11.6216 0.520608 13.4978 1.55902 15.1049C2.59742 16.712 4.08396 17.9797 5.83494 18.7512C7.58592 19.5227 9.52457 19.7643 11.4113 19.4461C13.2981 19.1278 15.0503 18.2638 16.4513 16.9606L18.1725 18.6181L19.1268 17.6136L17.4023 15.9393C18.9402 14.0334 19.7081 11.6203 19.5543 9.1761C19.4006 6.73192 18.3365 4.43408 16.5719 2.73587V2.73587ZM15.6276 15.4236C14.5144 16.5775 13.0841 17.3756 11.5175 17.717C9.95093 18.0584 8.31829 17.9278 6.8259 17.3417C5.3335 16.7555 4.04832 15.7402 3.13274 14.424C2.21717 13.1077 1.71231 11.5496 1.68191 9.94652C1.65151 8.34344 2.09695 6.76732 2.96196 5.4173C3.82698 4.06729 5.07275 3.00397 6.54185 2.36169C8.01095 1.71941 9.63747 1.52698 11.2159 1.80874C12.7943 2.0905 14.2538 2.83379 15.4099 3.9447C16.1793 4.68334 16.7953 5.56653 17.2228 6.54366C17.6502 7.52079 17.8806 8.57265 17.9008 9.63898C17.9211 10.7053 17.7307 11.7652 17.3406 12.7578C16.9505 13.7504 16.3684 14.6563 15.6276 15.4236V15.4236Z" fill="#D8D8D8"/>
<path d="M13.8999 8.74974H10.7656V5.61548H9.14493V8.74974H6.00732V10.3704H9.14493V13.5081H10.7656V10.3704H13.8999V8.74974Z" fill="#D8D8D8"/>
</g>
<defs>
<clipPath id="clip0_1_926">
<rect width="29.2665" height="28.3222" fill="white"/>
</clipPath>
</defs>
</svg>
