<svg width="16" height="10" fill="#212121" xmlns="http://www.w3.org/2000/svg"><path fill-rule="evenodd" clip-rule="evenodd" d="M8.242 6.965c0-1.232-.586-2.143-1.797-2.484.884-.42 1.345-1.058 1.345-2.05C7.79.477 6.328 0 4.642 0H0v9.814h4.772c1.79 0 3.47-.855 3.47-2.85Zm-6.078-5.29h2.03c.781 0 1.484.219 1.484 1.122 0 .833-.547 1.168-1.32 1.168H2.164v-2.29Zm0 6.473V5.445h2.358c.953 0 1.555.396 1.555 1.401 0 .992-.719 1.302-1.6 1.302H2.163ZM12.53 10c1.702 0 2.805-.764 3.336-2.39h-1.728c-.186.607-.953.928-1.547.928-1.148 0-1.75-.67-1.75-1.81h5.142c.008-.115.016-.24.016-.364 0-2.102-1.233-3.855-3.47-3.855-2.172 0-3.647 1.628-3.647 3.761 0 2.212 1.397 3.73 3.648 3.73Zm-.062-6.017c.984 0 1.479.576 1.561 1.518h-3.186c.065-.934.687-1.518 1.626-1.518ZM14.438.516h-3.992v.966h3.992V.516Z"/></svg>