<svg width="14" height="14" fill="#212121" xmlns="http://www.w3.org/2000/svg"><path fill-rule="evenodd" clip-rule="evenodd" d="M9.625 0h-5.25A4.375 4.375 0 000 4.375v5.25A4.375 4.375 0 004.375 14h5.25A4.375 4.375 0 0014 9.625v-5.25A4.375 4.375 0 009.625 0zm3.063 9.625a3.066 3.066 0 01-3.063 3.063h-5.25a3.066 3.066 0 01-3.063-3.063v-5.25a3.066 3.066 0 013.063-3.063h5.25a3.066 3.066 0 013.063 3.063v5.25zm-1.926-5.921a.466.466 0 100-.933.466.466 0 000 .933zM3.5 7a3.5 3.5 0 117 0 3.5 3.5 0 01-7 0zm1.313 0A2.19 2.19 0 007 9.188 2.19 2.19 0 009.188 7 2.19 2.19 0 007 4.812 2.19 2.19 0 004.812 7z"/></svg>