<svg width="31" height="32" fill="#fff" xmlns="http://www.w3.org/2000/svg"><path d="M30.892 22.608c-.124-.427-.25-1.085-1.088-1.494-.767-.409-1.66.303-1.856.463-.714.658-3.622 4.482-4.39 5.994-.267-.338-.303-.463-.5-.96-.463-1.299-.713-2.829-1.07-4.305-.196-.747-.428-1.512-.785-2.241a4.475 4.475 0 00-.536-.8c.928-.125 1.838-.303 2.73-.588 1.375-.462 2.784-1.067 3.909-2.223.553-.552 1.017-1.37 1.16-2.152.124-.8.232-1.672-.375-2.58-.678-.871-1.678-.978-2.41-1.031a13.029 13.029 0 00-2.23.107c-1.088.124-2.16.302-3.23.462 1.25-3.629 2.73-7.186 3.89-10.886l.018-.053c.018-.071.018-.142-.018-.196a.24.24 0 00-.339-.089c-2.32 1.12-4.265 2.74-5.978 4.59-1.713 1.831-3.14 4.02-3.997 6.385a48.85 48.85 0 00-.321.89c-.785-.054-1.57-.143-2.32-.339-.25-.07-3.248-.782-4.3-1.102l-.161.106c-.107.196-.036.285.035.374l.179.285.357.569.731 1.138 1.5 2.277c.624.996 1.355 2.01 2.016 2.988-.732 2.312-1.606 4.554-2.73 6.652-.572 1.05-1.214 2.064-2.017 2.846a4.52 4.52 0 01-1.445.979c.25-.392.481-.783.696-1.192.535-1.156 1.035-2.437.91-3.878-.072-.711-.304-1.458-.893-2.063-.589-.622-1.499-.854-2.266-.765-1.552.178-2.784 1.263-3.39 2.58-.625 1.369-.41 2.934.178 4.162.553 1.174 1.588 2.24 2.998 2.579-.036.07-.071.124-.107.195v.018a.272.272 0 000 .285 1.93 1.93 0 01.767-.374l.018-.018h.107c.143-.017.286-.035.428-.017 1.178-.125 2.213-.819 2.945-1.548.963-.943 1.66-2.063 2.248-3.184 1.053-1.903 1.785-3.913 2.41-5.94a.724.724 0 01.089.16c.803 1.511 1.32 3.201 1.677 4.909.357 1.707.571 3.504.589 5.247v.018c-.018.249.16.48.41.533a.543.543 0 00.625-.391v-.018l1.66-7.56c.553-2.507 1.017-5.069 1.695-7.488.214-.73.5-1.867.731-2.579.732-.125 2.998-.498 4.98-.676 1.034-.089 2.908-.16 2.355 2.366-.125.605-.375 1.05-.803 1.512-1.713 1.654-4.372 2.419-6.906 3.041a.912.912 0 00-.518.143l-.053.035a.415.415 0 00-.125.125s.018 0 .018.018c.196.124.41.195.588.32.107.07.197.16.268.267.232.177.464.569.607.996.232.658.375 1.37.482 2.08.267 1.46.374 2.953.82 4.537.233.782.59 1.636 1.339 2.312.018.018.053.035.09.053-.019.018-.019.054-.037.071a.21.21 0 01-.017.178c-.322.73-.41 1.512-.375 2.277.071-.036.143-.071.178-.16v-.018c.34-.64.732-1.245 1.089-1.867a4.53 4.53 0 001.767.302c.463-.018.838-.09 1.302-.178.428-.107.91-.302 1.303-.551.803-.498 1.374-1.21 1.802-1.957.785-1.512 1.214-3.113.892-4.963zm-26.678 6.28c-.071 0-.16.017-.232 0C2.055 28.584.77 25.72 1.627 23.96c.41-.925 1.338-1.636 2.248-1.76.946-.143 1.57.515 1.713 1.6.143 1.032-.125 2.206-.553 3.308a19.744 19.744 0 01-.82 1.78zm7.816-12.292s-.606-.747-1.534-1.903a334.15 334.15 0 01-2.177-2.81c1.035.409 3.783.996 4.871 1.102-.321.979-.874 2.633-1.16 3.611zm5.764-2.027c-.75 2.525-1.267 4.393-1.82 6.919-.214 1.067-.286 2.17-.5 3.237-.035-.338-.035-.018-.089-.356-.321-1.814-.82-3.646-1.66-5.354a11.31 11.31 0 00-.838-1.44c.393-1.406.874-3.256 1.285-4.643.374 0 .731 0 1.088-.018a34.854 34.854 0 003.123-.373c-.16.533-.428 1.494-.589 2.027zm1.017-3.078c-1.249.196-2.48.374-3.676.445-.178 0-.374-.018-.553-.018.054-.178.107-.373.179-.551.803-2.295 2.052-4.376 3.64-6.226 1.374-1.6 2.998-3.06 4.8-4.162-1.07 2.01-1.98 4.109-2.837 6.226a94.79 94.79 0 00-1.553 4.286zm9.655 15.226c-.34.552-.75 1.032-1.232 1.352-.446.32-1.07.445-1.73.498-.304.018-.91-.142-1.16-.196.892-1.44 1.98-2.881 3.015-4.18a12.067 12.067 0 011.5-1.511c.338-.16.392.177.41.302.196 1.138-.161 2.632-.803 3.735z"/></svg>