<svg width="15" height="18" fill="#212121" xmlns="http://www.w3.org/2000/svg"><path d="M7.751 0C2.691 0 0 3.162 0 6.61c0 1.597.916 3.592 2.383 4.224.419.184.363-.04.723-1.383a.313.313 0 0 0-.078-.313C.93 6.773 2.618 1.912 7.452 1.912c6.995 0 5.688 9.436 1.217 9.436-1.152 0-2.011-.882-1.74-1.973.33-1.3.974-2.697.974-3.634 0-2.36-3.607-2.01-3.607 1.118 0 .967.35 1.62.35 1.62L3.27 13.903c-.364 1.447.05 3.787.086 3.989.022.111.15.146.221.055.115-.146 1.518-2.098 1.911-3.509.143-.514.73-2.599.73-2.599.387.681 1.502 1.251 2.69 1.251 3.537 0 6.092-3.03 6.092-6.79C14.988 2.698 11.824 0 7.751 0Z"/></svg>