<svg width="30" height="29" fill="none" xmlns="http://www.w3.org/2000/svg"><g clip-path="url(#a)" fill="#D8D8D8"><path d="m18.834 17.213-1.036 1.077a.596.596 0 0 0 .017.842l9.41 9.05c.238.228.615.221.843-.016l1.036-1.077a.596.596 0 0 0-.017-.842l-9.41-9.05a.596.596 0 0 0-.843.016Z"/><path d="M16.572 2.736a9.791 9.791 0 1 0-.12 14.225l1.72 1.657.955-1.004-1.725-1.675a9.79 9.79 0 0 0-.83-13.203Zm-.944 12.688A8.11 8.11 0 1 1 3.953 4.16a8.11 8.11 0 0 1 11.675 11.263Z"/><path d="M13.9 8.75h-3.134V5.615H9.145V8.75H6.007v1.62h3.138v3.138h1.62V10.37H13.9V8.75Z"/></g><defs><clipPath id="a"><path fill="#fff" d="M0 0h29.267v28.322H0z"/></clipPath></defs></svg>