<svg xmlns="http://www.w3.org/2000/svg" xmlns:xlink="http://www.w3.org/1999/xlink"><defs>
<clipPath id="clip0_1_733">
<rect width="17" height="18.1578" fill="white"/>
</clipPath>

<clipPath id="clip0_1_521">
<rect width="17.58" height="17.58" fill="white"/>
</clipPath>
</defs><symbol id="arrow-right" viewBox="0 0 22 8">
<path d="M21.3536 4.35355C21.5488 4.15829 21.5488 3.84171 21.3536 3.64645L18.1716 0.464466C17.9763 0.269204 17.6597 0.269204 17.4645 0.464466C17.2692 0.659728 17.2692 0.976311 17.4645 1.17157L20.2929 4L17.4645 6.82843C17.2692 7.02369 17.2692 7.34027 17.4645 7.53553C17.6597 7.7308 17.9763 7.7308 18.1716 7.53553L21.3536 4.35355ZM0 4.5H21V3.5H0V4.5Z"/>
</symbol><symbol id="be" viewBox="0 0 16 10">
<path fill-rule="evenodd" clip-rule="evenodd" d="M8.2422 6.96483C8.2422 5.7328 7.65618 4.82211 6.44549 4.48077C7.32884 4.0601 7.78952 3.42275 7.78952 2.43139C7.78952 0.476678 6.32815 0 4.64211 0H0V9.81423H4.77211C6.56149 9.81423 8.2422 8.95888 8.2422 6.96483ZM2.16405 1.67537H4.19477C4.97545 1.67537 5.67814 1.89405 5.67814 2.79673C5.67814 3.63009 5.13146 3.96543 4.3581 3.96543H2.16405V1.67537ZM2.16338 8.14753V5.4448H4.52211C5.4748 5.4448 6.07748 5.84081 6.07748 6.84616C6.07748 7.83752 5.35813 8.14753 4.47744 8.14753H2.16338ZM12.5308 10.0002C14.2335 10.0002 15.3362 9.23554 15.8669 7.61017H14.1389C13.9528 8.21685 13.1862 8.53752 12.5915 8.53752C11.4441 8.53752 10.8414 7.86751 10.8414 6.72881H15.9836C15.9922 6.61348 16.0002 6.48881 16.0002 6.36414C16.0002 4.26208 14.7669 2.50937 12.5308 2.50937C10.3581 2.50937 8.88339 4.13741 8.88339 6.27013C8.88272 8.48219 10.2801 10.0002 12.5308 10.0002ZM12.4695 3.98274C13.4528 3.98274 13.9475 4.55876 14.0302 5.50078H10.8441C10.9088 4.56676 11.5308 3.98274 12.4695 3.98274ZM14.4368 0.515547H10.4447V1.48224H14.4368V0.515547Z"/>
</symbol><symbol id="burger" viewBox="0 0 31 17">
<path fill-rule="evenodd" clip-rule="evenodd" d="M0 0L31 1.90735e-06V1L0 0.999999V0ZM8 8L31 8V9L8 9V8ZM31 16L0 16V17L31 17V16Z"/>
</symbol><symbol id="clock" viewBox="0 0 18 18">
<path d="M9.00005 17.1725C13.5136 17.1725 17.1725 13.5136 17.1725 9.00005C17.1725 4.48655 13.5136 0.827637 9.00005 0.827637C4.48655 0.827637 0.827637 4.48655 0.827637 9.00005C0.827637 13.5136 4.48655 17.1725 9.00005 17.1725Z" stroke="black" stroke-width="1.65517" stroke-miterlimit="10"/>
<path d="M8.92969 3.88354V9.35596H14.6152" stroke="black" stroke-width="1.65517" stroke-miterlimit="10"/>
</symbol><symbol id="insta" viewBox="0 0 14 14">
<path fill-rule="evenodd" clip-rule="evenodd" d="M9.625 0H4.375C1.95913 0 0 1.95913 0 4.375V9.625C0 12.0409 1.95913 14 4.375 14H9.625C12.0409 14 14 12.0409 14 9.625V4.375C14 1.95913 12.0409 0 9.625 0ZM12.6875 9.625C12.6875 11.3138 11.3138 12.6875 9.625 12.6875H4.375C2.68625 12.6875 1.3125 11.3138 1.3125 9.625V4.375C1.3125 2.68625 2.68625 1.3125 4.375 1.3125H9.625C11.3138 1.3125 12.6875 2.68625 12.6875 4.375V9.625ZM10.7625 3.70404C11.02 3.70404 11.2288 3.49523 11.2288 3.23766C11.2288 2.98009 11.02 2.77129 10.7625 2.77129C10.5049 2.77129 10.2961 2.98009 10.2961 3.23766C10.2961 3.49523 10.5049 3.70404 10.7625 3.70404ZM3.5 7C3.5 5.06712 5.06712 3.5 7 3.5C8.93287 3.5 10.5 5.06712 10.5 7C10.5 8.93287 8.93287 10.5 7 10.5C5.06712 10.5 3.5 8.93287 3.5 7ZM4.8125 7C4.8125 8.20575 5.79425 9.1875 7 9.1875C8.20575 9.1875 9.1875 8.20575 9.1875 7C9.1875 5.79338 8.20575 4.8125 7 4.8125C5.79425 4.8125 4.8125 5.79338 4.8125 7Z"/>
</symbol><symbol id="logo" viewBox="0 0 31 32">
<path d="M30.8925 22.6083C30.7676 22.1814 30.6427 21.5233 29.804 21.1142C29.0366 20.7051 28.1444 21.4166 27.9481 21.5767C27.2343 22.2348 24.3255 26.0591 23.5582 27.571C23.2905 27.233 23.2548 27.1085 23.0585 26.6105C22.5946 25.312 22.3447 23.7823 21.9878 22.3059C21.7916 21.5589 21.5596 20.794 21.2027 20.0647C21.0599 19.7979 20.8815 19.5133 20.6673 19.2643C21.5953 19.1398 22.5054 18.9619 23.3976 18.6773C24.7717 18.2149 26.1814 17.6101 27.3057 16.4539C27.8589 15.9025 28.3228 15.0843 28.4656 14.3017C28.5905 13.5012 28.6976 12.6297 28.0909 11.7225C27.4127 10.8509 26.4134 10.7442 25.6818 10.6908C24.8966 10.6553 24.1649 10.7086 23.4511 10.7976C22.3626 10.9221 21.2919 11.0999 20.2212 11.26C21.4703 7.63143 22.9515 4.07397 24.1114 0.374221L24.1292 0.320859C24.1471 0.24971 24.1471 0.178561 24.1114 0.125199C24.04 0.000687871 23.8973 -0.0348867 23.7724 0.0362624C21.4525 1.15686 19.5074 2.7755 17.7943 4.62538C16.0811 6.45747 14.6535 8.64531 13.797 11.011C13.6899 11.2956 13.5828 11.598 13.4758 11.9004C12.6906 11.847 11.9054 11.7581 11.1559 11.5624C10.9061 11.4913 7.9081 10.7798 6.85525 10.4596L6.69464 10.5663C6.58757 10.762 6.65895 10.8509 6.73033 10.9399L6.90878 11.2245L7.26568 11.7937L7.99733 12.932L9.49631 15.2088C10.1209 16.2049 10.8525 17.2188 11.5128 18.1971C10.7812 20.5094 9.90675 22.7506 8.78251 24.8495C8.21147 25.899 7.56905 26.9128 6.76602 27.6955C6.33774 28.1224 5.83808 28.4603 5.32057 28.6738C5.5704 28.2825 5.80239 27.8911 6.01653 27.482C6.55188 26.3259 7.05154 25.0452 6.92663 23.6044C6.85525 22.8929 6.62326 22.1459 6.03438 21.5411C5.44549 20.9185 4.53539 20.6873 3.76805 20.7762C2.21554 20.9541 0.984228 22.0391 0.377496 23.3554C-0.24708 24.725 -0.0329398 26.2903 0.555947 27.5176C1.10914 28.6916 2.14416 29.7588 3.55391 30.0968C3.51822 30.1679 3.48253 30.2213 3.44684 30.2924V30.3102C3.39331 30.3991 3.39331 30.5059 3.44684 30.5948C3.66098 30.4169 3.92866 30.2924 4.21418 30.2213L4.23203 30.2035C4.26772 30.2035 4.30341 30.2035 4.3391 30.2035C4.48186 30.1857 4.62462 30.1679 4.76738 30.1857C5.94515 30.0612 6.98016 29.3675 7.71181 28.6382C8.67544 27.6955 9.3714 26.5749 9.96029 25.4543C11.0131 23.551 11.7448 21.5411 12.3694 19.5133C12.4051 19.5667 12.4407 19.6201 12.4586 19.6734C13.2616 21.1853 13.7791 22.8751 14.136 24.5827C14.4929 26.2903 14.7071 28.0868 14.7249 29.83V29.8477C14.7071 30.0968 14.8855 30.328 15.1353 30.3814C15.4209 30.4347 15.6885 30.2568 15.7599 29.99V29.9723L17.4195 22.4127C17.9727 19.9047 18.4367 17.3433 19.1148 14.9242C19.3289 14.1949 19.6145 13.0566 19.8464 12.3451C20.5781 12.2205 22.8444 11.847 24.8252 11.6691C25.8602 11.5802 27.734 11.5091 27.1808 14.0349C27.0558 14.6396 26.806 15.0843 26.3777 15.5468C24.6646 17.201 22.0057 17.9658 19.4717 18.5884C19.2932 18.5884 19.1148 18.624 18.9542 18.7307L18.9007 18.7663C18.8471 18.8018 18.8114 18.8374 18.7757 18.8908C18.7757 18.8908 18.7936 18.8908 18.7936 18.9086C18.9899 19.0331 19.204 19.1042 19.3825 19.2287C19.4895 19.2999 19.5788 19.3888 19.6501 19.4955C19.8821 19.6734 20.1141 20.0647 20.2569 20.4916C20.4889 21.1498 20.6316 21.8613 20.7387 22.5727C21.0064 24.0313 21.1134 25.5254 21.5596 27.1085C21.7916 27.8911 22.1485 28.7449 22.8979 29.4208C22.9158 29.4386 22.9515 29.4564 22.9872 29.4742C22.9693 29.492 22.9693 29.5276 22.9515 29.5454C22.9693 29.5987 22.9693 29.6699 22.9336 29.7232C22.6124 30.4525 22.5232 31.2351 22.5589 32C22.6303 31.9644 22.7016 31.9289 22.7373 31.8399V31.8221C23.0764 31.1818 23.469 30.577 23.8259 29.9545C24.4148 30.1857 25.0394 30.2746 25.5925 30.2568C26.0565 30.2391 26.4313 30.1679 26.8952 30.079C27.3235 29.9723 27.8053 29.7766 28.1979 29.5276C29.0009 29.0295 29.572 28.318 30.0003 27.571C30.7855 26.0591 31.2137 24.4582 30.8925 22.6083ZM4.21418 28.8872C4.1428 28.8872 4.05358 28.905 3.9822 28.8872C2.05493 28.5848 0.770087 25.7211 1.62665 23.9602C2.03709 23.0352 2.96503 22.3237 3.87513 22.1992C4.82091 22.0569 5.44549 22.715 5.58825 23.8001C5.73101 24.8317 5.46333 26.0057 5.03505 27.1085C4.80307 27.6955 4.51755 28.3002 4.21418 28.8872ZM12.0303 16.5962C12.0303 16.5962 11.4236 15.8492 10.4956 14.693C9.58554 13.5368 8.31854 11.8826 8.31854 11.8826C9.35355 12.2917 12.1017 12.8787 13.1902 12.9854C12.869 13.9637 12.3158 15.6179 12.0303 16.5962ZM17.7943 14.5685C17.0448 17.0943 16.5273 18.9619 15.9741 21.4877C15.7599 22.555 15.6885 23.6578 15.4744 24.725C15.4387 24.387 15.4387 24.7072 15.3852 24.3693C15.064 22.555 14.5643 20.7229 13.7256 19.0153C13.4758 18.4995 13.1902 18.0192 12.8869 17.5745C13.2795 16.1693 13.7613 14.3194 14.1717 12.932C14.5465 12.932 14.9034 12.932 15.2603 12.9143C16.331 12.8431 17.366 12.7008 18.3831 12.5407C18.2225 13.0743 17.9549 14.0349 17.7943 14.5685ZM18.8114 11.4913C17.5623 11.6869 16.331 11.8648 15.1353 11.936C14.9569 11.936 14.7606 11.9182 14.5822 11.9182C14.6357 11.7403 14.6892 11.5446 14.7606 11.3668C15.5636 9.0722 16.8128 6.99109 18.401 5.14121C19.7751 3.54036 21.399 2.0818 23.2013 0.978988C22.1306 2.98895 21.2205 5.08785 20.3639 7.20454C19.8108 8.62752 19.2932 10.0505 18.8114 11.4913ZM28.4656 26.7172C28.1265 27.2686 27.7161 27.7488 27.2343 28.069C26.7882 28.3892 26.1636 28.5137 25.5033 28.5671C25.2 28.5848 24.5932 28.4248 24.3434 28.3714C25.2356 26.9306 26.3242 25.4899 27.3592 24.1914C27.841 23.6044 28.4121 23.053 28.8582 22.6795C29.1972 22.5194 29.2508 22.8573 29.2686 22.9819C29.4649 24.1202 29.108 25.6144 28.4656 26.7172Z"/>
</symbol><symbol id="pinterest" viewBox="0 0 15 18">
<path d="M7.75117 0C2.69014 0.000750011 0 3.16204 0 6.60909C0 8.20737 0.916201 10.2016 2.3832 10.8339C2.80168 11.0177 2.74629 10.7934 3.10631 9.45088C3.13478 9.33913 3.12016 9.24238 3.02785 9.13813C0.930817 6.77335 2.6186 1.91178 7.45192 1.91178C14.4469 1.91178 13.1399 11.3484 8.66891 11.3484C7.51654 11.3484 6.65803 10.4664 6.92959 9.37513C7.25883 8.07536 7.90348 6.67809 7.90348 5.74133C7.90348 3.3803 4.2956 3.73055 4.2956 6.85885C4.2956 7.82561 4.64639 8.47812 4.64639 8.47812C4.64639 8.47812 3.48556 13.0502 3.27017 13.9044C2.90553 15.3505 3.3194 17.6912 3.35556 17.893C3.37787 18.004 3.50556 18.0393 3.57711 17.9478C3.69173 17.8015 5.09488 15.85 5.48797 14.4392C5.63106 13.9254 6.21801 11.8404 6.21801 11.8404C6.60495 12.5214 7.7204 13.0914 8.90892 13.0914C12.4445 13.0914 15 10.0614 15 6.30159C14.9877 2.69704 11.8237 0 7.75117 0V0Z"/>
</symbol><symbol id="refresh" viewBox="0 0 17 19">
<g clip-path="url(#clip0_1_733)">
<path d="M7.11254 16.9264C3.28984 16.2648 0.367676 12.9383 0.367676 8.91347C0.367676 5.42157 2.5547 2.46265 5.64227 1.28644" stroke="black" stroke-width="0.735135" stroke-miterlimit="10"/>
<path d="M8.50928 0.77182C12.9936 0.77182 16.6509 4.41074 16.6509 8.91344C16.6509 12.7178 14.0412 15.8972 10.5309 16.7978" stroke="black" stroke-width="0.735135" stroke-miterlimit="10"/>
<path d="M2.24219 0.349121L5.66057 1.34155L4.64975 4.79669" stroke="black" stroke-width="0.735135" stroke-miterlimit="10"/>
<path d="M13.7104 17.7902L10.292 16.7978L11.3028 13.361" stroke="black" stroke-width="0.735135" stroke-miterlimit="10"/>
</g>

</symbol><symbol id="resize" viewBox="0 0 18 18">
<g clip-path="url(#clip0_1_521)">
<path d="M16.8121 0.767822H0.767822V16.8121H16.8121V0.767822Z" stroke="black" stroke-width="1.53571" stroke-miterlimit="10"/>
<path d="M2.86597 6.92989V2.92554H6.87032L2.86597 6.92989Z" fill="black"/>
<path d="M14.6257 10.606V14.6103H10.6213L14.6257 10.606Z" fill="black"/>
<path d="M3.98901 3.96021L13.6582 13.6294" stroke="black" stroke-width="1.53571" stroke-miterlimit="10"/>
</g>

</symbol><symbol id="search-light" viewBox="0 0 21 21">
<path fill-rule="evenodd" clip-rule="evenodd" d="M14.5569 8.34609C14.5569 4.69018 11.5854 1.7354 7.94619 1.7354C4.29028 1.7354 1.33549 4.70687 1.33549 8.34609C1.33549 11.9853 4.30697 14.9401 7.94619 14.9401C11.5854 14.9401 14.5569 12.002 14.5569 8.34609ZM0 8.34609C0 3.95566 3.55575 0.399902 7.94619 0.399902C12.3199 0.399902 15.8924 3.95566 15.8924 8.34609C15.8924 10.0445 15.3603 11.6181 14.4535 12.9091L20.6047 19.0603L19.6604 20.0047L13.5934 13.9377C12.1536 15.3918 10.1556 16.2923 7.94619 16.2923C3.55575 16.2923 0 12.7365 0 8.34609Z"/>
</symbol><symbol id="search" viewBox="0 0 21 21">
<path fill-rule="evenodd" clip-rule="evenodd" d="M14.5569 8.34609C14.5569 4.69018 11.5854 1.7354 7.94619 1.7354C4.29028 1.7354 1.33549 4.70687 1.33549 8.34609C1.33549 11.9853 4.30697 14.9401 7.94619 14.9401C11.5854 14.9401 14.5569 12.002 14.5569 8.34609ZM0 8.34609C0 3.95566 3.55575 0.399902 7.94619 0.399902C12.3199 0.399902 15.8924 3.95566 15.8924 8.34609C15.8924 10.0445 15.3603 11.6181 14.4535 12.9091L20.6047 19.0603L19.6604 20.0047L13.5934 13.9377C12.1536 15.3918 10.1556 16.2923 7.94619 16.2923C3.55575 16.2923 0 12.7365 0 8.34609Z"/>
</symbol><symbol id="triangle-dark" viewBox="0 0 9 7">
<path d="M4.5 7L0.602885 0.25L8.39711 0.250001L4.5 7Z"/>
</symbol><symbol id="triangle" viewBox="0 0 9 7">
<path d="M4.5 7L0.602885 0.25L8.39711 0.250001L4.5 7Z"/>
</symbol><symbol id="vk" viewBox="0 0 17 10">
<path d="M16.9098 9.0311C16.8893 8.98536 16.8701 8.94742 16.8522 8.91702C16.5573 8.36934 15.9937 7.6971 15.1617 6.9001L15.1441 6.88185L15.1353 6.8729L15.1264 6.86373H15.1175C14.7399 6.49261 14.5007 6.24307 14.4006 6.11532C14.2174 5.87195 14.1763 5.62561 14.2765 5.37602C14.3472 5.18743 14.613 4.78918 15.0731 4.1807C15.3151 3.85823 15.5068 3.59977 15.6484 3.40506C16.6693 2.00572 17.1119 1.11153 16.9761 0.722125L16.9234 0.631127C16.8879 0.576343 16.7965 0.526225 16.6491 0.480518C16.5014 0.434907 16.3127 0.427364 16.0825 0.45776L13.5334 0.475915C13.4921 0.460829 13.4331 0.462235 13.3563 0.480518C13.2796 0.4988 13.2412 0.507974 13.2412 0.507974L13.1968 0.530827L13.1616 0.558283C13.1321 0.576438 13.0997 0.60837 13.0642 0.654013C13.029 0.699496 12.9995 0.752873 12.9759 0.813699C12.6984 1.54984 12.3829 2.23426 12.0287 2.86693C11.8104 3.24419 11.6099 3.57114 11.4267 3.84797C11.2439 4.1247 11.0904 4.32859 10.9666 4.45929C10.8426 4.59011 10.7307 4.69492 10.6302 4.77409C10.5298 4.85329 10.4532 4.88676 10.4002 4.87452C10.347 4.86228 10.297 4.85013 10.2496 4.83798C10.167 4.7832 10.1006 4.70869 10.0505 4.6144C10.0002 4.52011 9.96639 4.40144 9.94868 4.25847C9.93108 4.1154 9.92066 3.99234 9.91768 3.88888C9.91492 3.78554 9.91619 3.63938 9.92218 3.4508C9.92832 3.26212 9.93108 3.13446 9.93108 3.06753C9.93108 2.83631 9.93545 2.58537 9.94422 2.31464C9.95315 2.04392 9.96037 1.82941 9.96642 1.67139C9.97243 1.51321 9.97522 1.34585 9.97522 1.16941C9.97522 0.992979 9.96481 0.854611 9.94422 0.754184C9.92388 0.653884 9.89266 0.556526 9.85153 0.462139C9.81014 0.367849 9.74956 0.294909 9.67007 0.24313C9.59043 0.191414 9.49141 0.150373 9.37358 0.119881C9.0608 0.0469095 8.66252 0.00743533 8.17856 0.00129845C7.08107 -0.0108474 6.37588 0.0622196 6.06313 0.220404C5.93922 0.287238 5.82709 0.378556 5.72683 0.49407C5.62059 0.627962 5.60577 0.70103 5.68247 0.713048C6.03657 0.767736 6.28724 0.89856 6.43478 1.10539L6.48795 1.21499C6.5293 1.29407 6.5706 1.43407 6.61192 1.63479C6.65319 1.83552 6.67982 2.05757 6.69154 2.3008C6.72099 2.74499 6.72099 3.12522 6.69154 3.44153C6.66199 3.75796 6.63409 4.0043 6.60746 4.18073C6.58083 4.35717 6.54102 4.50014 6.48795 4.60961C6.43478 4.71911 6.39941 4.78605 6.38167 4.81034C6.36397 4.83463 6.34922 4.84994 6.3375 4.85595C6.2608 4.88625 6.18103 4.90169 6.09847 4.90169C6.01579 4.90169 5.91553 4.85905 5.79754 4.77384C5.67958 4.68862 5.55716 4.57157 5.43027 4.4225C5.30338 4.27339 5.16027 4.06503 5.0009 3.79737C4.84164 3.52971 4.6764 3.21338 4.50527 2.84836L4.36369 2.58364C4.27518 2.41334 4.15427 2.16538 4.00085 1.83996C3.84733 1.51442 3.71163 1.19952 3.59367 0.895332C3.54652 0.767576 3.47568 0.670314 3.38128 0.603383L3.33698 0.575927C3.30753 0.551635 3.26025 0.525841 3.19539 0.498353C3.13045 0.470897 3.06268 0.451208 2.99181 0.439094L0.566585 0.457249C0.318758 0.457249 0.150606 0.515133 0.0620652 0.630743L0.0266304 0.685432C0.00892846 0.715892 0 0.76454 0 0.831502C0 0.898432 0.0177019 0.980577 0.0531367 1.07784C0.407175 1.93572 0.792183 2.76308 1.20816 3.56005C1.62414 4.35701 1.98562 4.99898 2.29238 5.48539C2.5992 5.97216 2.91195 6.43156 3.23061 6.86338C3.54928 7.29535 3.76021 7.57219 3.86342 7.6938C3.96674 7.81565 4.04791 7.90674 4.1069 7.96757L4.32822 8.18654C4.46984 8.33258 4.6778 8.50748 4.95219 8.71125C5.22665 8.91514 5.5305 9.11586 5.86389 9.31375C6.19734 9.51131 6.58526 9.67253 7.02787 9.79722C7.47042 9.92203 7.90115 9.97212 8.32014 9.94795H9.33805C9.54449 9.92957 9.70089 9.86265 9.80719 9.74713L9.84241 9.70139C9.8661 9.66508 9.88826 9.60867 9.90872 9.53276C9.92943 9.45672 9.93973 9.37294 9.93973 9.28181C9.93368 9.02026 9.95299 8.78454 9.99714 8.57467C10.0413 8.36486 10.0915 8.20668 10.1478 8.10015C10.204 7.99371 10.2674 7.9039 10.338 7.83108C10.4087 7.75811 10.4592 7.71391 10.4887 7.69869C10.5181 7.68338 10.5416 7.673 10.5593 7.66676C10.7009 7.61812 10.8676 7.66523 11.0595 7.80833C11.2513 7.9513 11.4312 8.12783 11.5995 8.33763C11.7677 8.54763 11.9698 8.78323 12.2058 9.04478C12.4419 9.30643 12.6484 9.50092 12.8253 9.62887L13.0023 9.73837C13.1205 9.81144 13.2739 9.87837 13.4627 9.9392C13.6513 9.99999 13.8164 10.0152 13.9583 9.98481L16.2241 9.94837C16.4482 9.94837 16.6226 9.91011 16.7463 9.8342C16.8702 9.75816 16.9439 9.67438 16.9676 9.58326C16.9913 9.49203 16.9926 9.38854 16.9721 9.27283C16.9511 9.15742 16.9304 9.07671 16.9098 9.0311Z"/>
</symbol></svg>