<svg width="17" height="10" fill="#212121" xmlns="http://www.w3.org/2000/svg"><path d="M16.91 9.031a1.177 1.177 0 0 0-.058-.114c-.295-.548-.858-1.22-1.69-2.017l-.018-.018-.009-.01-.009-.008h-.008c-.378-.371-.617-.62-.717-.749-.184-.243-.225-.49-.124-.739.07-.189.336-.587.796-1.195.242-.323.434-.581.575-.776 1.021-1.4 1.464-2.293 1.328-2.683l-.053-.09c-.035-.056-.126-.106-.274-.151a1.353 1.353 0 0 0-.567-.023l-2.549.018a.321.321 0 0 0-.177.005l-.115.027-.044.023-.035.027a.4.4 0 0 0-.098.096.634.634 0 0 0-.088.16c-.278.736-.593 1.42-.947 2.053-.219.377-.42.704-.602.981-.183.277-.337.48-.46.611-.124.131-.236.236-.337.315-.1.08-.177.113-.23.1a6.25 6.25 0 0 1-.15-.036.6.6 0 0 1-.2-.224 1.024 1.024 0 0 1-.101-.356 4.047 4.047 0 0 1-.031-.37 7.953 7.953 0 0 1 .004-.437c.006-.189.01-.317.01-.383 0-.232.003-.483.012-.753l.022-.644c.006-.158.01-.325.01-.502 0-.176-.011-.314-.032-.415-.02-.1-.051-.197-.092-.292A.488.488 0 0 0 9.67.243 1.006 1.006 0 0 0 9.374.12C9.06.047 8.663.007 8.179 0 7.08-.01 6.376.062 6.063.221a1.199 1.199 0 0 0-.336.273c-.106.134-.121.207-.045.219.355.055.605.186.753.392l.053.11c.041.08.083.22.124.42.041.2.068.423.08.666.029.444.029.824 0 1.14a14 14 0 0 1-.085.74 1.515 1.515 0 0 1-.225.63.155.155 0 0 1-.044.045.646.646 0 0 1-.24.046c-.082 0-.182-.043-.3-.128a2.15 2.15 0 0 1-.368-.351A4.697 4.697 0 0 1 5 3.797a11.02 11.02 0 0 1-.495-.949l-.141-.264A23.03 23.03 0 0 1 4 1.84c-.154-.326-.29-.64-.407-.945A.6.6 0 0 0 3.38.603L3.337.576a.917.917 0 0 0-.345-.137L.567.457C.319.457.15.515.062.631L.027.685A.303.303 0 0 0 0 .832c0 .066.018.149.053.246.354.858.74 1.685 1.155 2.482.416.797.778 1.439 1.084 1.925.307.487.62.947.939 1.378.318.432.53.71.632.83.104.123.185.214.244.275l.221.219c.142.146.35.32.624.524.275.204.579.405.912.603.333.197.721.359 1.164.483a3.91 3.91 0 0 0 1.292.15h1.018c.206-.017.363-.084.47-.2l.034-.046a.615.615 0 0 0 .067-.168.954.954 0 0 0 .03-.251 3.097 3.097 0 0 1 .058-.707c.044-.21.095-.368.15-.475a1.165 1.165 0 0 1 .342-.401.57.57 0 0 1 .07-.032c.142-.049.309-.002.5.141.192.143.372.32.54.53.169.21.37.445.607.707.236.261.442.456.62.584l.176.11c.118.072.272.14.46.2.19.061.354.076.496.046l2.266-.037c.224 0 .399-.038.522-.114.124-.076.198-.16.222-.25a.727.727 0 0 0 .004-.311 1.173 1.173 0 0 0-.062-.242Z"/></svg>