<svg version="1.0" xmlns="http://www.w3.org/2000/svg" width="1365.333" height="1365.333" viewBox="0 0 1024 1024"><path d="M777 .7c-.8.3-2.2 1.2-3.2 2-.9.8-2.2 1.6-3 1.7-1.6.3-11.1 4.9-11.8 5.7-.8 1-7.5 4.3-8.2 4.1-.5-.1-.8.2-.8.8 0 .5-.5 1-1.1 1-1.9 0-41.3 24.4-44.7 27.7-.7.7-1.7 1.3-2.1 1.3-.4 0-1.7.9-2.9 2-1.2 1.2-2.2 1.7-2.2 1.3 0-.4-.4-.3-.8.2-.4.6-5.2 4.4-10.7 8.4-5.5 4.1-10.5 8-11.2 8.5-.7.6-1.8 1.5-2.5 2.1-1.2.9-13.9 11.2-19.1 15.5-1 .8-3.1 2.6-4.6 4-1.5 1.4-6.5 5.9-11.2 10-4.6 4.1-17 16-27.4 26.5-16.2 16.2-23.4 23.7-40.3 42.3-1.2 1.4-3.3 3.9-4.5 5.5-1.2 1.6-2.8 3.5-3.5 4.3-.7.7-3.8 4.4-6.8 8.1-3 3.8-6.1 7.5-6.7 8.3-.7.9-3.3 4.2-5.7 7.5-2.5 3.3-4.7 6.2-5.1 6.5-.3.3-2 2.7-3.9 5.5-1.9 2.7-3.6 5.2-4 5.5-.3.3-1.7 2.3-3 4.5s-2.7 4.2-3 4.5c-.8.8-16 23.9-16 24.5 0 .2-1.6 2.9-3.5 6-2 3-3.5 5.7-3.5 6 0 .3-1.6 2.9-3.5 5.9-1.9 3-3.5 5.9-3.5 6.4s-.7 1.5-1.5 2.2c-.8.6-1.4 1.5-1.3 1.8.2.7-.7 2.6-8.9 18.2-2.2 4.1-6.1 12.4-8.7 18.5-2.7 6-5.5 12.3-6.2 14-3.2 7.2-7.4 18.7-7.4 20 0 .8-.4 1.5-.8 1.5-.5 0-.9.6-.9 1.2-.1 1.1-6 18.1-8 22.8-.3.8-.7 2.1-.9 2.9-.4 2.2-2.6 3.2-5.9 2.7-1.6-.3-6.6-.8-11-1.1-4.4-.3-9.3-.8-11-1-6.7-.8-13.1-1.7-15.5-2.1-1.4-.2-4.3-.7-6.5-1-2.2-.4-6.9-1.3-10.5-2-3.6-.8-7.4-1.7-8.5-1.9-5.3-1.2-44.2-10.7-45.5-11.2-1.5-.6-3.8-1.1-7.2-1.6-1-.2-2-.6-2.4-.9-.3-.4-1.2-.4-2-.1-.8.3-1.4.1-1.4-.4s-1-.9-2.2-1.1c-1.3-.1-5.9-1.1-10.3-2.2-4.4-1.2-8.7-2.3-9.5-2.5l-8-2c-3.6-.9-8.4-2.1-10.8-2.6-2.4-.5-4.7-1.1-5.1-1.3-.4-.3-1.8-.7-3.2-1-3.2-.7-16-4.1-22.9-6.1-13.2-3.8-13.7-3.9-16.4-2.2-2.2 1.5-4.3 5.6-4.2 8.3.1.6 2.9 5.5 6.3 10.8 3.5 5.4 6.3 10.2 6.3 10.7s.5.9 1 .9c.6 0 1 .7 1 1.5s.5 1.5 1 1.5c.6 0 1 .5 1 1 0 .6 3 5.7 6.7 11.3 7.2 11 9.7 14.9 11.5 18.4.6 1.3 1.5 2.3 2 2.3.4 0 .8.4.8 1 0 .8 9.9 16.4 15.5 24.5.8 1.1 7.5 11.2 14.9 22.5s14 21.1 14.6 21.7c.6.7.8 1.3.5 1.3-.4 0 0 .7.7 1.5 2.7 3 3.8 4.4 3.8 5 0 1.7 52.3 79.2 54.5 80.7.6.5.6.8 0 .8s-.6.3.1.8c1.4 1 13.4 18.9 13.4 20.1 0 .5-2.2 7.5-4.9 15.5s-4.6 14.7-4.3 15c.3.4 0 .6-.6.6s-.9.7-.6 1.5c.4.8.1 1.5-.6 1.5s-1 .6-.7 1.4c.3.7.2 1.7-.3 2.2-.8 1-4.5 11.9-4 11.9.2 0-.3 1.1-1.1 2.5s-1.4 2.9-1.5 3.5c0 .5-.4 1.7-.7 2.5-.4.8-3.6 9.4-7.2 19s-7.2 18.9-8 20.7c-.8 1.7-1.5 3.6-1.5 4.2 0 .6-.4 1.9-.9 2.9-1.6 2.9-4.8 10.5-6.2 14.7-.8 2.2-1.6 4.2-1.9 4.5-.3.3-1.6 3.2-2.9 6.5-2.8 6.9-7.1 16.7-10.6 24-3.9 8.2-8.5 18.5-8.5 19 0 .3-.4 1.1-1 1.8-.6.6-4 7.3-7.6 14.7-3.6 7.4-7.1 13.8-7.7 14.2-.7.4-.9.8-.4.8.8 0-3.8 8.7-12.5 23.3-3.2 5.5-5.8 10.3-5.8 10.8s-.4.9-.8.9c-.5 0-1.4 1.2-2 2.6-2.5 5.4-23.4 35.3-28.7 41-.5.7-3.5 4-6.5 7.4-5.4 6.1-16.4 17.1-20.7 20.7-1.2 1-3.2 2.7-4.4 3.7-4.1 3.4-20.3 13.6-21.6 13.6-.7 0-1.3.4-1.3 1 0 .5-.7 1-1.5 1-.9 0-2.7.7-4.1 1.6-1.3.9-2.6 1.5-2.8 1.3-.3-.2 1.1-2.9 3-5.9 1.8-3 3.8-6.4 4.4-7.5.6-1.1 1.6-2.9 2.3-4 3.9-6.4 11.1-20.1 10.9-20.8-.1-.4.2-.7.8-.7.5 0 1-.4 1-.9s1.4-4 3.1-7.8c5.2-11.6 6.3-14.4 6.1-15.6-.1-.4.3-.7.9-.7.5 0 .8-.4.4-.9-.3-.5.1-1.5.8-2.3.8-.7 1.4-2 1.4-2.8.1-.8 1.7-6.1 3.7-11.8 12-34.5 15-68.2 8.5-96.2-2.1-8.9-5.9-21.2-7-22-.3-.3-1.7-3-3.2-6-4.3-9.2-15.3-22.6-23.5-28.7-2-1.6-3.9-3-4.2-3.3-1.6-1.6-15-8.3-16.7-8.3-.7 0-1.3-.4-1.3-.9 0-.4-1.1-.8-2.4-.8-1.4 0-2.8-.5-3.1-1.1-.4-.5-1.2-.8-1.8-.6-.7.2-2.3 0-3.6-.5-5.8-2.1-26.1-3-35.1-1.4-2.5.4-6 .9-7.8 1.1-1.8.2-3.7.7-4.2 1-.6.3-1.9.8-3 1.1-1.1.2-2.8.6-3.9.8-3.8.9-17.8 6.8-23.6 10.1C53.6 700 24.4 740.4 18.3 779c-.2 1.4-.6 3.8-.9 5.5-1.2 6.5-1.1 34.3.1 42 3 19 7.6 35.2 14.1 49 1.5 3.3 2.8 6.3 2.9 6.6.1 1.6 11.3 20.2 16.2 26.8 7.5 10.3 25.1 27.5 34.3 33.6 4.1 2.8 7.7 5.3 8 5.6 1.3 1.5 20.5 10 28.1 12.5l8.6 2.7-2.4 4.4c-2.3 4.5-2.9 7.9-1.5 10 .5.8 2 .3 5-1.8 4.5-3.1 12.3-6.8 15.3-7.4 1.1-.2 2.4-.7 2.9-1 1-.6 7.8-1.3 19.5-1.9 11-.6 25.8-4.6 38.9-10.5 3.4-1.5 7.6-3.4 9.4-4.2 1.7-.7 3.2-1.7 3.2-2.1 0-.5.5-.8 1.1-.8 1.4 0 17-10.1 22.9-14.9 13.6-10.9 32.5-30 42.2-42.7 1.2-1.6 2.5-3.1 2.8-3.4 1.8-1.4 13.3-17.8 20.2-28.5 2.8-4.4 6.1-9.6 7.3-11.5 1.3-1.9 3.7-6.2 5.5-9.5 1.8-3.3 3.6-6.5 4-7 .7-1 6.1-11 12.7-23.5 1.9-3.6 3.9-7.1 4.5-7.8.6-.6.7-1.2.3-1.2-.4 0-.2-.6.4-1.4 1.1-1.3 11.4-21.4 11.6-22.6 0-.3 1-2.5 2.2-5 3.5-7.3 9.3-20.1 9.3-20.5 0-.3 1.2-3 2.7-6.2 1.4-3.2 2.6-6.4 2.6-7.1 0-.6.4-1.2.8-1.2s1-1.1 1.3-2.4c.3-1.3 1.6-4.6 2.8-7.3 1.1-2.6 2.2-5.3 2.3-5.9.3-1.4 12.4-34.1 13.6-36.9.5-1.1 3.6-10.3 7-20.5 3.3-10.2 6.3-19.2 6.6-20 .3-.8.8-2.2.9-3 .2-.8 1.2-4.2 2.3-7.4 1.8-5.9 1.8-5.9 3.4-3.5 2.6 4 16.1 32.6 20.7 43.9 3.7 9 14.7 39.5 15.4 42.5.6 2.6 2.9 10.3 3.9 13 .7 1.6 1.2 3.4 1.3 4 .1.5 1.2 4.5 2.4 8.7 1.1 4.3 2.3 8.5 2.5 9.5.1 1 1.1 4.7 2 8.3.9 3.6 1.9 7.3 2.1 8.3.2 1 .5 2.6.8 3.5.3.9.7 2.9 1 4.5.3 1.5.7 3.5 1 4.5.3.9.8 2.9 1.1 4.4.3 1.6.7 4 1 5.5.9 4.2 1.5 7.5 2.1 11.3.3 1.9.8 3.8 1.1 4.3.2.4.6 2.4.8 4.5.3 2 .7 4.8 1 6.2.3 1.4 1 5.2 1.5 8.5s1.2 7.1 1.5 8.5c.3 1.4.7 4.7 1 7.5.3 2.7.8 5.7 1 6.5.2.8.7 4 1 7 .3 3 .8 6.6 1 8 .2 1.4.7 4.7 1 7.5.3 2.7.7 6.5 1 8.3.2 1.9.7 6.6 1 10.5.3 4 .7 8.3.9 9.7.4 2.4 1.4 16.6 2.1 32 .2 4.1.4 12.6.5 18.9.2 15.3 2.2 20.3 10 24 6.5 3.2 15.9.8 20.1-5 2-2.8 4.7-10.7 5.4-15.7.2-1.5 1.3-7 2.5-12.2 1.2-5.2 2.4-10.4 2.6-11.5.2-1.1.6-3 .8-4.1.2-1.2 1.4-6.6 2.6-12 1.2-5.5 2.4-10.8 2.6-11.9 1.4-7.7 4.9-23.1 5.4-23.5.3-.3.6-1.4.7-2.5.2-2.9 1.3-8.7 1.9-10.5.5-1.4 6.1-26.9 7-32 .3-1.4.7-3.3 1-4.2.3-1 .8-3 1.1-4.5.8-4.3 1.1-5.8 1.3-5.8.1 0 .3-.9.5-2 .5-4 1.6-8.8 2-9.5.3-.4.7-2.2.9-4.1.3-1.9.7-4.4 1.1-5.7.3-1.2.7-3.2 1.1-4.5.3-1.2.7-3.3 1-4.7.2-1.4.7-3.2 1-4 .3-.8.8-3.1 1-5 .3-1.9 1-5.3 1.5-7.5.6-2.2 1.3-4.9 1.4-6 .5-2.6 1.2-6.2 3.1-14.4.9-3.6 1.8-7.5 2-8.6.2-1.1.6-3.1.9-4.5.3-1.4 1-4.5 1.5-7s1.6-7.7 2.6-11.5c.9-3.9 1.8-7.9 2-9 .1-1.1 1-5.2 1.9-9 .9-3.9 1.8-8.1 2.1-9.5.3-1.4 1.2-5.9 2.1-10 .8-4.1 1.7-8.4 2-9.5.2-1.1.6-3.4.9-5 .3-1.7.8-3.7 1.1-4.5.7-1.8 1-3.2 1.6-8.7.3-2.4.9-4.8 1.3-5.4.3-.6.8-2.3 1-3.8.1-1.4.5-3.7.9-5.1.3-1.4.8-3.4 1-4.5.8-4.6 1.6-8.4 3.1-15 .9-3.9 1.8-8 2-9.3.7-3.7 1.3-6.6 1.9-9.2.3-1.4.8-3.4 1-4.5.3-1.9 1.4-6.9 1.9-9 .2-.6.6-2.8 1.1-5 .4-2.2 1.8-8.5 3.2-14 1.3-5.5 2.6-10.9 2.7-12 .4-2.3 3-13.2 5.1-21.5.8-3 1.7-6.6 1.9-8 .2-1.4.5-2.5.6-2.5.1 0 .3-1.1.6-2.5.2-1.4 1.8-7.5 3.4-13.5 1.6-6.1 3.1-12.1 3.4-13.5.3-1.4 1-4.1 1.6-6 .6-1.9 1.3-4.6 1.6-6 .2-1.4.7-3.2 1.1-4 .3-.8.7-1.7.8-2 2.3-8.9 3-11 3.7-11 .5 0 .6-.5.3-1-.4-.6.3-4.3 1.4-8.3 2.3-7.8 2.6-8.7 7.1-25.2 1.7-6.1 3.9-13.9 5-17.5 1-3.6 2.4-8.5 3.1-11 .7-2.5 2-4.9 2.8-5.5 1.9-1.1 1.5-1 15.1-3 1.9-.2 4.6-.7 6-1 4-.8 15.2-2.6 18.5-2.9 1.7-.2 4.4-.6 6-.9 1.7-.3 5-.9 7.5-1.2 2.5-.3 5.6-.7 7-1 3.2-.7 8.6-1.5 13-2 8.9-1 12.7-1.5 14.5-1.9 1.1-.2 4.7-.7 8-1.1 3.2-.4 6.8-.9 7.8-1.1 1-.2 4.6-.6 8-.9 3.4-.3 7.3-.8 8.7-1 4.1-.6 13.3-1.7 17-2 1.9-.2 6.9-.6 11-1 19.3-1.8 23.9-2.1 33.8-1.9 11.5.3 12.8.5 21.2 2.9 3 .8 6.2 1.7 7.1 1.9 3.4.9 17.3 10.6 15.2 10.6-.4 0 0 .5 1 1.1 2.6 1.5 7.4 11.3 9.3 18.9 1 4 1.3 24.3.4 29.1-.5 2.4-1.1 6-1.4 7.9-1.2 7.8-6 21.9-9.8 29-8.5 15.9-19.4 27.8-37.8 41.3-3.6 2.6-6.9 5.1-7.5 5.5-3.4 2.7-10.5 7.2-11.3 7.2-.6 0-1.2.4-1.4.9-.7 1.9-45.1 24.6-52.3 26.7-.8.2-6.5 2.5-19 7.4-4.6 1.8-9.1 3.5-10 3.7-.5.1-3 .9-5.5 1.8-5.6 2.1-22.8 7.5-25.5 8.1-1.1.2-3.1.8-4.5 1.4-2.1.8-14 4.2-19 5.5-.8.2-6 1.5-11.5 3-22.6 6-33.1 8.5-35.7 8.5-6.5 0-20.6 7.7-18.2 9.9.5.5 4.3 2.6 8.4 4.7 4.1 2.1 7.7 4.2 7.8 4.6.2.5.9.8 1.6.8 1.5 0 12 10.7 17 17.4 7.9 10.4 17 35.5 22 60.6.3 1.4.8 3.6 1.1 5 .3 1.4.8 4.3 1 6.4.3 2.1.8 4.2 1 4.7.3.4.8 3.2 1.1 6.1.5 5.2 1.1 9.3 1.4 9.3.2 0 .8 3.3 1.5 8.5.3 2.5.8 5.4 1 6.5.6 3 1.6 9.5 2.1 13.5.5 4.9 1.2 9.5 1.4 9.5.1 0 .4 1.3.5 3 .3 3 1 7.8 1.9 12.5.3 1.4.7 4.7 1.1 7.5.3 2.7 1 7.5 1.5 10.5s1.2 7.3 1.5 9.5c.4 2.2.8 4.7 1 5.5.2.8.7 3.7 1.1 6.5.3 2.7.8 5.3 1 5.6.2.4.6 2.4 1 4.5.3 2.2.9 5.5 1.4 7.4.5 1.9 1.2 4.8 1.5 6.5.3 1.6 1.4 6.6 2.5 11 1.2 4.4 2.3 8.9 2.5 10.1.3 1.1 1.9 6.3 3.6 11.5 1.7 5.2 3.2 10 3.2 10.6 0 .7.4 1.3.9 1.3.4 0 .7.3.7.8-.5 2.2 8.7 20.7 14.8 30 4 6 6.4 9.2 10 12.9 1.2 1.3 2 2.3 1.8 2.3-.3 0 2 2.5 5.1 5.5 3.1 3 6 5.5 6.5 5.5s.4 1.1-.1 2.4c-.5 1.3-.6 2.6-.4 2.9.3.3.1 1.3-.4 2.4-1.6 3-4.3 9.8-4.5 11.3-.2.8-.5 1.9-.8 2.5-.6.9-1.2 3.2-2.5 8.8-.2.9-.7 2.7-1 4-.3 1.2-.6 3.2-.7 4.4-.1 1.3-.3 2.3-.6 2.3-.4 0-.7 1.5-.8 3.3-.1 1.7-.4 6.1-.8 9.7-.6 6-.8 15.6-.6 23.8.1 3 .2 3.1 2.2 2 1.1-.7 3.6-4.2 5.5-7.8 3.7-7.1 6.4-11.9 10.9-19.5 1.7-2.7 3.5-5.7 4-6.7 11.4-19.9 18-29.9 19.4-29.5 19 5.9 27 7.6 39.1 8.4 16.4 1.1 31.7 0 47-3.2 1.4-.3 4.3-.8 6.5-1.1 4.8-.7 22-6.3 29-9.5 2.8-1.3 5.3-2.2 5.8-2.1.4.1.7-.2.7-.7 0-.5 1-1.3 2.1-1.6 2.7-.9 16.3-9.6 16.7-10.7.2-.4.9-.8 1.6-.8.6 0 1.8-.9 2.6-2s1.8-2 2.2-2c.4 0 1.6-.8 2.6-1.8s2.7-2.5 3.8-3.3c2.4-1.8 12.9-13.2 16.9-18.2 1.7-2.1 3.5-4.4 4.1-5 5.8-6.5 23.7-37.7 23.7-41.5 0-.6.3-1.2.7-1.2.7 0 3.9-7.4 4-9.2.1-.4 1.1-3.1 2.4-6 3-6.9 8.8-25.3 10.1-32.4.2-1 .4-1.9.5-1.9.2 0 .8-2.6 2.5-12.3.3-1.5.7-3.8 1-5.2 1.3-6.5 1.9-16.9 1.9-32.5.1-21.9-1.2-34.1-4.6-46-6.1-21.2-14.4-31.7-33.1-41.9-2.7-1.5-5.3-2.4-5.8-2.1-.5.4-.9.2-.9-.2 0-.5-1.2-1-2.7-1.1-7.3-.8-10.3-.8-10.3-.3 0 .3-1.5.5-3.2.5-1.8-.1-3.9.3-4.5.9-.7.5-1.3.6-1.3.2 0-.4-.7-.2-1.5.5s-1.5.9-1.5.5-.7-.2-1.5.5-1.5 1-1.5.6c0-1.1-15.2 7.5-20 11.2-7.4 5.8-17.1 16.4-31.5 34.2-4.2 5.2-8.9 11.1-10.5 13-12.6 15.6-45 58.8-45 60 0 .5-.4 1-.8 1.2-.4.1-2.3 2.5-4.2 5.3-1.9 2.7-3.9 5.4-4.3 6-.4.5-3 4.1-5.7 8-2.7 3.8-5.3 7.5-5.7 8-2.5 3.2-25.4 38.5-26.4 40.7-.7 1.6-1.5 2.8-1.9 2.8-.4 0-1 .8-1.3 1.7-.4 1-1.7 3.6-2.9 5.8-1.3 2.2-3 5.1-3.7 6.3l-1.3 2.4-2.7-3.9c-1.6-2.1-3.9-5.8-5.3-8.3-2.8-5.2-10.8-25.3-11.5-28.9-.2-1.3-.8-3.2-1.4-4.3-.5-1-.7-1.8-.3-1.8.3 0 .2-.6-.3-1.3-.6-.6-1.6-3.5-2.2-6.2-1.7-6.7-1.9-7.4-3.1-12-.6-2.2-1.3-5.4-1.6-7-.3-1.7-1-3.7-1.4-4.5-.4-.8-1.1-3.5-1.5-6-.4-2.5-1-4.9-1.3-5.4-.3-.6-.7-1.9-.8-3-.2-2.6-1.3-7.6-2-9.5-.2-.8-.7-3-1-5-.3-2-.7-4.2-1-5-.5-1.5-5.9-25.8-6.7-30.1-1.1-5.7-6.1-26.3-9.1-36.8-.8-2.8-1.2-5.2-1-5.2.3 0-.2-1.3-1.1-3-.8-1.6-1.5-3.1-1.4-3.2.2-.6-4.2-15.3-5.2-17-.5-1-.9-2.5-.9-3.3 0-.8-.4-1.5-.8-1.5s-.8-.8-.9-1.8c-.1-.9-.7-3.1-1.4-4.7-.7-1.7-1.3-3.2-1.4-3.5-2.6-7.6-15.6-32.3-18.5-35-1.5-1.4-6.1-8.2-5.8-8.5.2-.2 2.8-.7 5.8-1 7.5-.9 9-1.1 13-1.9 1.9-.4 4.6-.9 6-1.1 1.4-.2 3.9-.6 5.5-1 1.7-.3 5.3-1 8.1-1.6 2.8-.5 6.4-1.2 8-1.5 4.4-.9 5.9-1.2 5.9-1.4 0-.1 1.2-.3 2.6-.4 1.4-.2 3.1-.6 3.7-1 .7-.4 2.5-1 4-1.2 1.5-.3 4.5-1 6.7-1.6 2.2-.7 4.2-1.2 4.5-1.2.3-.1 1.1-.5 1.8-.9.6-.5 1.2-.6 1.2-.3 0 .8 30.4-9.8 39.8-13.8 4.4-1.9 8.3-3.2 8.6-2.9.3.4.6.1.6-.5 0-.7.9-1.2 2-1.2s2-.4 2-.8 1-.8 2.1-.9c1.2-.1 2.9-.9 3.8-1.7 1-.9 2.1-1.6 2.4-1.6 3.8 0 44.9-24.1 47.7-28 .3-.4 1.2-1.1 2.1-1.6 6.1-3.4 27.3-23.9 34.6-33.4 13-17 23.2-38.7 25.9-54.9.3-1.8.8-4.3 1-5.5.9-3.9 1.6-13 1.8-20.3 0-4 .5-7.3.9-7.3.5 0 .5-.4.2-1-.3-.5-.8-4-1.1-7.7-.5-6.7-1.1-11.8-1.4-11.8-.1 0-.4-1.1-.6-2.5-1.1-6.3-8.2-22.1-12.3-27.4-3.4-4.4-13.8-14.3-18.1-17.2-6.3-4.1-18-9.5-24-10.9-19.1-4.5-29.1-5.5-52.5-5.5-16.6.1-29.1.6-36.3 1.5-2.6.4-6.5.8-8.7 1-5.6.5-15.7 1.7-17.5 2-.8.2-4.4.6-8 1-3.6.4-6.7.8-7 1-.3.2-3.2.6-6.5.9-3.3.4-6.7.9-7.5 1.1-.8.2-4 .7-7.1.9-3.1.3-6.7.7-8 1-2.9.7-6.7 1.3-12.8 2.2-2.5.3-5.7.8-7.1 1-1.4.3-4.2.7-6.2.9-2 .2-4.5.6-5.5.9-1 .3-3.8.8-6.3 1.1-2.5.2-6.2.7-8.2 1-2.8.4-3.8.2-3.8-.9 0-1.2 2.1-7.9 3.7-11.6.3-.8.7-2 .8-2.5.2-.6 1.7-4.8 3.5-9.5 1.7-4.7 3.3-9.2 3.5-10 .2-.8 1.5-4.7 3-8.5 3.4-9.2 3.5-9.5 3.2-9.9-.1-.1.4-1 1.2-1.9.7-1 1.1-1.7.8-1.7-.3 0 0-1.2.8-2.7.8-1.5 1.2-3 .9-3.5-.3-.4 0-.8.7-.8s.9-.3.6-.6c-.3-.4-.2-1.5.4-2.6.6-1.1 1.2-2.7 1.4-3.6.2-.9 2-6 4-11.2 2-5.2 4.2-11.1 4.9-13 .7-1.9 4.6-12.3 8.6-23s7.3-20 7.5-20.5c.1-.6.8-2.4 1.5-4 .7-1.7 1.4-3.3 1.5-3.8.2-.4.4-.9.5-1.2.1-.3.3-.8.5-1.3.1-.4.4-1.4.8-2.2.3-.8 1.5-4.2 2.6-7.5 1.2-3.3 2.6-6.9 3.1-8 .5-1.1 3.4-9 6.5-17.5 6.4-17.7 9.3-25.6 10.5-28.5.5-1.1 2.1-5.4 3.5-9.5s2.8-8.2 3.2-9c.3-.8.7-2.2.9-3 .2-.8.7-2.3 1.2-3.5 3.2-6.6 29.4-83.4 36.3-106 .6-2.2 1.4-4.4 1.7-4.9 3.4-5.9-4.1-13.4-10.8-10.9zm-27.2 47.5c-4.6 9-8.7 16.6-9.1 16.9-.5.3-.8.9-.8 1.3.2 1.3-5.3 12.6-6.1 12.6-.4 0-.8.6-.8 1.4 0 .8-1.5 4.5-3.4 8.2-1.8 3.8-5.3 10.9-7.6 15.9-2.3 4.9-5 10.7-6.1 12.8-1 2.1-1.9 4.4-1.9 5.2 0 .8-.4 1.5-1 1.5-.5 0-.9.3-.8.7.1.5-.5 2.4-1.4 4.3-.9 1.9-5 11.4-9.2 21-4.3 9.6-8.3 18.8-9.1 20.5-2.8 6.3-4.8 11-5.1 12-.2 1.1-5.2 13.1-7.7 18.6-1.6 3.7-2.9 7.2-2.7 7.7 0 .1-.6 1.5-1.4 3-.8 1.5-3.1 6.7-5.1 11.7-2 4.9-4 9.9-4.5 11-.5 1.1-1.9 4.9-3.1 8.5-1.2 3.6-2.6 6.9-2.9 7.5-.8 1.1-2.9 7.4-3.1 9-.1.5-.6 1.9-1.2 3s-1.2 2.2-1.2 2.5c-.1.3-.7 1.8-1.4 3.5-.7 1.6-1.4 3.4-1.5 4-.3 1-.5 1.6-2.2 6-.4 1.1-.8 2.4-.9 3-.3.9-2.9 7.8-5 13-.4 1.1-.9 2.4-1.1 3-.1.5-2.3 6.8-4.9 14-5.3 14.7-11.6 32.5-11.9 34-.2.5-.8 2.3-1.4 3.8-.7 1.6-1.2 3.4-1.2 4.1 0 .7-.3 1.6-.7 2-.5.4-.8 1.1-.8 1.4-.2 2.6-3.9 11.2-4.8 11.2-.7 0-6.8.9-13.7 1.9-6.9 1.1-14.7 2.3-17.5 2.6-2.7.3-5.7.8-6.5 1-.8.2-4.2.7-7.5 1.1-3.3.3-6.8.8-7.9 1-1 .2-4.4.6-7.5.9-3.1.3-6.7.8-8.1 1-2.7.5-8.9 1.2-18.5 2.1-3.3.3-7.6.7-9.5 1-1.9.2-11.1.6-20.3.8l-16.8.4.7-3.1c.3-1.8 2.4-8.2 4.6-14.2 2.2-6.1 4-11.6 4.1-12.3 0-.6.4-1.2.9-1.2.4 0 .7-.3.7-.8-.1-.4 0-1 .1-1.5.1-.4.3-1 .4-1.5.1-.4 1-2.4 1.9-4.6.9-2.1 1.7-4.4 1.7-5 0-.7.4-1.6.8-2.2.5-.5 1.9-3.4 3.1-6.4 1.3-3 3.2-7.8 4.4-10.5 2.8-6.6 23-46.9 23.8-47.5.3-.3 1.7-2.5 3-5 4.3-7.9 11.3-19.5 12.1-19.8.5-.2.8-.8.8-1.3 0-1.3 18-28.3 19.2-28.7.4-.2.8-.9.8-1.5 0-.7.9-2.3 2-3.7 1.2-1.4 4.8-6.1 8.1-10.5s6.9-9 8-10.3c1-1.2 1.7-2.2 1.5-2.2-.2 0 .7-1.2 2-2.8 1.3-1.5 5-5.9 8.2-9.7 3.1-3.9 6.6-8.1 7.7-9.3 1.1-1.3 2.7-3.2 3.5-4.1 8.7-10.3 15.5-17.6 33.5-35.6 20.9-21 26.8-26.6 40-38 3.9-3.3 7.2-6.3 7.3-6.8.2-.4 1-.7 1.8-.7s1.4-.3 1.4-.8c0-.4 2.4-2.6 5.3-4.9 2.8-2.3 6.1-4.8 7.2-5.7 1.1-.9 5.6-4.3 10-7.6s8.5-6.3 9-6.8c2.4-1.9 23.5-16.2 24-16.2.3 0 1.1-.5 1.8-1 2.3-2 8.2-5.8 9-5.9.4-.1-3 7.2-7.5 16.1zM287 382.2c0 .4 1.1.8 2.4.8 1.4 0 2.7.4 3 .8.3.5 3.1 1.4 6.3 2.1 3.2.8 6.3 1.6 6.8 1.9 1 .7 2.8 1.1 5.8 1.4.9.1 1.7.5 1.7.9s1.5.9 3.3 1.2c6.6 1.1 10.2 1.9 10.7 2.5.3.4 1.2.8 2 .8.8.1 8.7 1.8 17.5 3.9 8.8 2 16.9 3.9 18 4.1 1.1.2 3.1.6 4.5.9 1.4.3 3.4.7 4.5 1 6.5 1.4 32.6 6.4 36 6.9 2.2.4 5.4.9 7 1.1 5.7 1 9 1.5 14.8 2.1 3.2.4 5.9 1 6.2 1.4.2.3-.9 4.3-2.5 8.7-1.5 4.5-2.6 8.4-2.2 8.7.3.3 0 .6-.7.6s-1 .4-.7.8c.3.5-.1 1.9-.8 3.3-.7 1.3-1.1 3-.8 3.7.2.6-.2 1.2-.9 1.2s-1 .3-.6.6c.3.4 0 2.1-.7 3.8-.7 1.7-1.3 3.3-1.4 3.6-.1.7-.4 1.7-5.6 17.5-5.2 16-8.8 27.5-9 29 0 .5-.4 1.2-.8 1.5-.4.3-.9 1.7-1.2 3.2-.2 1.4-.9 3.6-1.6 4.7-.6 1.2-.8 2.1-.5 2.1.2 0-.2 1.7-1 3.7-1.1 3.1-2.6 8-4.1 13.5-.1.5-.2 1.5-.3 2.3-.2 2.8-1.8 1.6-7.7-5.7-3.3-4-7-8.5-8.4-10.1-1.4-1.6-3.7-4.6-5.1-6.7-1.5-2.2-2.9-3.6-3.3-3.3-.3.4-.6.1-.6-.6s-.6-1.8-1.2-2.5c-.7-.7-2.4-2.7-3.8-4.5-1.4-1.8-3-3.8-3.5-4.4-4.6-5.4-14.5-17.7-14.5-18.2s-1.1-1.8-6.7-8c-1.3-1.3-2.3-2.7-2.3-3 0-.4-.6-1.2-1.2-1.9-.7-.7-2.4-2.8-3.8-4.6-4.1-5.5-7.5-9.5-8.2-9.8-.5-.2-.8-.9-.8-1.5 0-.7-1.4-2.6-3-4.4-1.7-1.8-3-3.7-3-4.2 0-.6-.4-1.1-.8-1.1s-2.5-2.4-4.7-5.3c-2.1-2.8-4.3-5.7-4.7-6.2-.5-.6-3.4-4.4-6.5-8.5-3.2-4.1-6-7.7-6.3-8-.3-.3-3.9-4.9-8-10.3-4.1-5.5-8.3-10.9-9.3-12.2-1.7-2.3-1.7-2.4.3-2.2 1.1.1 2 .5 2 .9zm311 40.4c-6.3 21.5-6.7 23.2-7.6 27.4-.3 1.3-1.1 2.8-1.7 3.2-.7.4-.9.8-.5.8s-.5 3.9-1.8 8.7c-1.4 4.9-2.9 10.1-3.4 11.8-.4 1.6-4.2 14.5-8.3 28.5-8.7 29.6-9.9 34-10.1 36-.1.9-.5 2-.8 2.5-.7 1.1-3.8 11.9-4.3 15-.2 1.1-.4 2-.5 2-.1 0-.4.9-.6 2-.8 3.4-1.2 5-1.4 5-.1 0-.3.7-.5 1.5s-.6 2.5-.9 3.7c-.3 1.3-.9 3.3-1.2 4.5-.3 1.3-.7 3-.9 3.8-.2.8-.4 1.5-.5 1.5-.1 0-.3.7-.5 1.5-.1.8-1.5 6-2.9 11.5-1.5 5.5-2.9 11.1-3.2 12.5-.2 1.4-1.1 4.8-1.9 7.6-.8 2.8-1.7 6.2-1.9 7.5-.3 1.3-.5 2.4-.6 2.4-.1 0-.3.9-.5 2s-1.1 4.9-2 8.5l-2 8c-.2.8-1.1 4.6-2 8.5-.9 3.8-1.9 8.3-2.1 10-.3 1.6-.8 3.7-1.1 4.5-.3.8-.7 2.3-.8 3.2-.2 1-.4 2-.5 2.3-.3.6-.4.9-1.3 5.5-.7 3.5-1.3 6-2.2 10.2-.3 1.3-.7 3.6-1 5.3-.5 2.8-.8 4.2-2 10.5-.3 1.4-.8 4.5-1.1 7-.3 2.5-.8 5.6-1 7-.3 1.4-.6 4.1-.9 6-.2 1.9-.7 5.1-1 7-.3 1.9-.7 5.5-1 8-.3 2.5-.8 5.6-1 6.9-.2 1.4-.7 5.1-1 8.4-.4 3.2-.8 6.6-1 7.5-.1.9-1.3 7.9-2.6 15.5-2.1 13.2-3.1 15.2-4.4 8.7-.2-1.1-.6-2.3-.8-2.8-.3-.4-.8-2.9-1.1-5.6-.4-2.7-.9-5.3-1.1-5.6-.3-.4-.7-2.5-1-4.6-.4-2.2-.8-4.8-1.1-5.9-.2-1.1-.6-3.1-.8-4.5-.3-1.4-.8-3.9-1.2-5.5-.3-1.7-.8-3.9-.9-5-.2-1.1-.4-2-.5-2-.1 0-.3-.7-.5-1.5s-.7-2.6-1-4c-.3-1.4-.8-3.4-1-4.5-.2-1.1-.6-3-.9-4.3-.3-1.2-.8-3-1-4-.2-.9-1-3.7-1.7-6.2-.6-2.5-1.3-5.2-1.4-6-.6-3.9-12.6-42.3-15.4-49.5-5.1-12.7-7.1-18.2-7.1-19.3 0-.6-.4-1.2-.8-1.2-.5 0-.9-.6-.9-1.4 0-.8-.7-2.9-1.5-4.7-.9-1.9-2.4-5.2-3.3-7.4-6.1-13.7-21-43-23.5-46-.7-.8-.9-1.5-.6-1.5.4 0-.2-1-1.4-2.2-1.1-1.2-2-2.8-2-3.5 0-.7-.4-1.3-.9-1.3s-1.4-1.4-2.1-3c-.7-1.7-1.5-3-1.9-3-.3 0-1.2-1.3-1.9-3-1.4-3-1.2-5.9.8-12 .6-1.9 1.3-4.4 1.5-5.5.3-1.1 1.6-6.1 3-11 1.4-5 2.8-10.1 3.1-11.5.3-1.4 1.2-5 2.1-8 .9-3 1.8-6.1 1.9-6.8.1-.7.9-3.6 1.8-6.5.9-2.8 3.6-12.9 6.2-22.2 2.5-9.4 7.5-27.4 11.1-40 3.5-12.7 6.6-23.8 6.9-24.9.2-1 .5-2 .7-2.2.2-.2 10-.6 21.8-.9 11.8-.2 22.5-.7 23.9-1 1.4-.3 5.9-.7 10-1 7.5-.6 10.7-.9 19-1.9 2.5-.3 7-.8 10-1.1 3-.3 6.6-.7 8-1 1.4-.2 4.3-.6 6.5-.9 2.2-.3 6-.8 8.5-1.1 2.5-.3 5.2-.8 6-1 .8-.2 4-.7 7-1 3-.4 7.3-1 9.5-1.4 2.2-.4 4.1-.7 4.3-.5.2.1-2.4 9.6-5.8 21zM156.9 710.8c.8-.3 7.8 2.1 10.4 3.6 4.6 2.4 8.3 5.2 10.6 8 1.4 1.5 3.1 3.4 3.8 4.1 2 2.1 6.9 11.5 8.8 17 1.6 4.8 2 6.2 3 11.5.3 1.4.7 3.6 1 5 .5 2.1 1.6 15.3 1.6 18.5.1 8-1.5 24.6-3.1 33.5-.5 2.4-.6 4.8-.4 5.2.3.5.1.8-.4.8s-.9.6-.9 1.2c-.1 4.6-7.4 31.2-9.6 35.3-.6 1.1-1.2 2.7-1.2 3.5-.3 2.2-7.8 20.5-12.9 31.4-2.4 5.2-4.1 9.7-3.8 10 .3.3 0 .6-.6.6-.7 0-1.2.5-1.2 1 0 .9-9.6 21.5-10.7 23-.6.7-10.7.6-11.8-.1-.5-.4-3-1.2-5.5-1.9-5.7-1.4-19.8-8.4-23.5-11.6-1.5-1.3-3.1-2.4-3.4-2.4-.8 0-12.7-11.6-16.8-16.4-4.9-5.7-11.7-16.3-16.2-25.3-5-10-10.4-25-11.6-32.3-.3-1.9-.8-4.3-1.1-5.3-1.5-4.9-2.4-32.6-1.1-33.4.4-.2.5-.8.2-1.3-1-1.7 2.7-15.9 6.5-24.5 1-2.2 2.1-5 2.4-6.3.4-1.2 1.1-2.2 1.6-2.2.4 0 1.1-1.1 1.4-2.4.3-1.4 1.2-3.1 1.9-3.8.6-.7 2.4-3.1 3.9-5.3 2.9-4.2 16.8-19.3 16.8-18.1 0 .3.8-.1 1.8-1 5.4-4.9 8.7-7 17.7-11.4 11-5.4 21-8.4 29.5-8.9 3-.1 5.6-.4 5.8-.6.2-.2 1.7.1 3.4.6 1.7.4 3.3.7 3.7.7zM949.5 727c.8.9 1.7 2.7 2 3.9.2 1.1.6 2.4.8 2.9.9 1.4 1.9 14.8 1.8 23.7-.1 14.1-1.1 22.7-3.7 34.5-.9 4.1-1.7 8.2-1.9 9-1.3 9.1-15.9 46.2-18.9 48.2-.6.4-.7.8-.3.8.5 0 .1.7-.7 1.6-.9.8-1.4 1.9-1.1 2.4.3.5.2 1-.2 1.2-.5.1-2.6 3-4.8 6.3-10.4 15.9-24.7 30.2-39 39.3-2.4 1.5-10.6 5.3-12 5.6-.5.1-1.5.4-2 .8-2 1.3-15.8 4.4-23.5 5.3-1.4.2-2.5.4-2.5.5 0 .2-8.7 1-12 1.1-4.2.1-13-1-19.5-2.5-3.9-.9-13.4-2.8-14.8-3-2.1-.3-1.9-.8 2.6-8.1 2.4-3.9 4.8-7.9 5.5-9 .7-1 1.8-2.5 2.5-3.3.6-.7 1.2-1.7 1.2-2.2 0-.5.6-1.5 1.3-2.2.7-.7 3.5-4.7 6.2-8.8 2.7-4.1 8.1-11.9 12-17.3 3.8-5.4 7.5-10.6 8-11.5.6-.9 1.5-2.1 2-2.8.6-.6 1.7-2.1 2.5-3.4.8-1.2 6.1-8.3 11.8-15.8 5.7-7.5 11.1-14.8 12-16.1.9-1.3 2.2-2.8 2.7-3.5.6-.6 5-6.3 9.9-12.6 9.7-12.4 21.3-26.6 25.5-31 1.4-1.5 4.9-5.1 7.7-8.1 6.2-6.5 20.7-20.2 25.7-24.4 5.7-4.6 9.9-5.1 13.2-1.5z"/></svg>